<svg width="106" height="100" viewBox="0 0 106 100" fill="none" xmlns="http://www.w3.org/2000/svg">
<path d="M9.76181 99.9349H60.8356C63.4235 99.9315 65.9045 98.9019 67.7345 97.0719C69.5644 95.242 70.594 92.761 70.5974 90.1731V9.76181C70.594 7.17388 69.5644 4.69292 67.7345 2.86297C65.9045 1.03302 63.4235 0.0034437 60.8356 0H9.76181C7.17388 0.0034437 4.69292 1.03302 2.86297 2.86297C1.03302 4.69292 0.0034437 7.17388 0 9.76181V90.1731C0.0034437 92.761 1.03302 95.242 2.86297 97.0719C4.69292 98.9019 7.17388 99.9315 9.76181 99.9349ZM3.90472 9.76181C3.90816 8.20947 4.52635 6.7217 5.62402 5.62402C6.7217 4.52635 8.20947 3.90816 9.76181 3.90472H60.8356C62.389 3.90472 63.8788 4.52181 64.9772 5.62023C66.0756 6.71864 66.6927 8.20842 66.6927 9.76181V90.1731C66.6927 91.7265 66.0756 93.2163 64.9772 94.3147C63.8788 95.4131 62.389 96.0302 60.8356 96.0302H9.76181C8.20947 96.0267 6.7217 95.4086 5.62402 94.3109C4.52635 93.2132 3.90816 91.7254 3.90472 90.1731V9.76181ZM14.9681 19.1722C14.9681 18.6544 15.1738 18.1578 15.5399 17.7917C15.9061 17.4255 16.4027 17.2198 16.9205 17.2198H35.4549C35.9727 17.2198 36.4693 17.4255 36.8354 17.7917C37.2016 18.1578 37.4073 18.6544 37.4073 19.1722C37.4073 19.69 37.2016 20.1866 36.8354 20.5527C36.4693 20.9189 35.9727 21.1246 35.4549 21.1246H16.9205C16.4027 21.1246 15.9061 20.9189 15.5399 20.5527C15.1738 20.1866 14.9681 19.69 14.9681 19.1722ZM14.9681 34.5698C14.9681 34.052 15.1738 33.5554 15.5399 33.1893C15.9061 32.8232 16.4027 32.6175 16.9205 32.6175H53.6769C54.1947 32.6175 54.6913 32.8232 55.0575 33.1893C55.4236 33.5554 55.6293 34.052 55.6293 34.5698C55.6293 35.0876 55.4236 35.5842 55.0575 35.9504C54.6913 36.3165 54.1947 36.5222 53.6769 36.5222H16.9205C16.4027 36.5222 15.9061 36.3165 15.5399 35.9504C15.1738 35.5842 14.9681 35.0876 14.9681 34.5698ZM14.9681 49.9675C14.9681 49.4497 15.1738 48.9531 15.5399 48.5869C15.9061 48.2208 16.4027 48.0151 16.9205 48.0151H53.6769C54.1947 48.0151 54.6913 48.2208 55.0575 48.5869C55.4236 48.9531 55.6293 49.4497 55.6293 49.9675C55.6293 50.4853 55.4236 50.9818 55.0575 51.348C54.6913 51.7141 54.1947 51.9198 53.6769 51.9198H16.9205C16.4027 51.9198 15.9061 51.7141 15.5399 51.348C15.1738 50.9818 14.9681 50.4853 14.9681 49.9675ZM14.9681 65.3651C14.9681 64.8473 15.1738 64.3507 15.5399 63.9846C15.9061 63.6184 16.4027 63.4127 16.9205 63.4127H53.6769C54.1947 63.4127 54.6913 63.6184 55.0575 63.9846C55.4236 64.3507 55.6293 64.8473 55.6293 65.3651C55.6293 65.8829 55.4236 66.3795 55.0575 66.7456C54.6913 67.1118 54.1947 67.3175 53.6769 67.3175H16.9205C16.4027 67.3175 15.9061 67.1118 15.5399 66.7456C15.1738 66.3795 14.9681 65.8829 14.9681 65.3651ZM14.9681 80.7627C14.9681 80.2449 15.1738 79.7483 15.5399 79.3822C15.9061 79.0161 16.4027 78.8104 16.9205 78.8104H53.6769C54.1947 78.8104 54.6913 79.0161 55.0575 79.3822C55.4236 79.7483 55.6293 80.2449 55.6293 80.7627C55.6293 81.2805 55.4236 81.7771 55.0575 82.1432C54.6913 82.5094 54.1947 82.7151 53.6769 82.7151H16.9205C16.4027 82.7151 15.9061 82.5094 15.5399 82.1432C15.1738 81.7771 14.9681 81.2805 14.9681 80.7627ZM90.6287 0.065079C87.737 0.0625305 84.9097 0.918498 82.505 2.5245C80.1004 4.1305 78.2266 6.41423 77.1212 9.08627C76.0158 11.7583 75.7286 14.6984 76.2959 17.5338C76.8632 20.3693 78.2595 22.9725 80.3079 25.0135C82.3563 27.0546 84.9645 28.4416 87.8019 28.9988C90.6394 29.5559 93.5784 29.2582 96.2465 28.1433C98.9145 27.0283 101.192 25.1464 102.789 22.736C104.386 20.3257 105.232 17.4953 105.219 14.6037C105.216 10.7338 103.678 7.02331 100.943 4.28571C98.2076 1.54811 94.4985 0.00689041 90.6287 0V0.065079ZM90.6287 25.3677C88.5121 25.3703 86.4422 24.745 84.6811 23.5709C82.92 22.3969 81.5466 20.7268 80.7348 18.7721C79.9231 16.8173 79.7093 14.6657 80.1207 12.5895C80.532 10.5132 81.55 8.60564 83.0457 7.10807C84.5415 5.61049 86.4478 4.59022 88.5236 4.17634C90.5993 3.76247 92.7512 3.97358 94.7069 4.78297C96.6627 5.59237 98.3344 6.96367 99.5106 8.72338C100.687 10.4831 101.315 12.5521 101.315 14.6687C101.294 17.4917 100.16 20.1924 98.1589 22.1837C96.1579 24.1749 93.4517 25.2958 90.6287 25.3026V25.3677ZM96.0302 12.3519L91.761 19.1722C91.6042 19.419 91.3943 19.6276 91.1466 19.783C90.8989 19.9384 90.6197 20.0365 90.3293 20.0703H90.108C89.591 20.067 89.0957 19.8614 88.7284 19.4976L85.4874 16.1265C85.2956 15.9478 85.1418 15.7322 85.0351 15.4927C84.9284 15.2533 84.871 14.9947 84.8663 14.7326C84.8617 14.4704 84.91 14.21 85.0081 13.9669C85.1063 13.7238 85.2525 13.503 85.4379 13.3176C85.6233 13.1322 85.8441 12.9861 86.0872 12.8879C86.3303 12.7897 86.5907 12.7415 86.8529 12.7461C87.115 12.7507 87.3735 12.8081 87.613 12.9148C87.8525 13.0215 88.068 13.1754 88.2468 13.3672L89.7566 14.877L92.7242 10.1393C93.0004 9.70086 93.4394 9.39012 93.9446 9.2754C94.4499 9.16067 94.9801 9.25137 95.4185 9.52753C95.8569 9.80369 96.1676 10.2427 96.2823 10.748C96.397 11.2532 96.3064 11.7834 96.0302 12.2218V12.3519ZM90.6287 35.3638C87.7398 35.3612 84.915 36.2155 82.5117 37.8186C80.1085 39.4217 78.2347 41.7016 77.1273 44.3699C76.02 47.0381 75.729 49.9748 76.291 52.8085C76.853 55.6422 78.2428 58.2455 80.2847 60.2892C82.3265 62.3329 84.9286 63.725 87.7618 64.2896C90.595 64.8541 93.532 64.5657 96.2012 63.4607C98.8704 62.3558 101.152 60.484 102.757 58.0822C104.362 55.6803 105.219 52.8563 105.219 49.9675C105.216 46.0976 103.678 42.3871 100.943 39.6495C98.2076 36.9119 94.4985 35.3707 90.6287 35.3638ZM90.6287 60.6664C88.5121 60.669 86.4422 60.0437 84.6811 58.8696C82.92 57.6956 81.5466 56.0255 80.7348 54.0708C79.9231 52.116 79.7093 49.9644 80.1207 47.8882C80.532 45.8119 81.55 43.9044 83.0457 42.4068C84.5415 40.9092 86.4478 39.8889 88.5236 39.475C90.5993 39.0612 92.7512 39.2723 94.7069 40.0817C96.6627 40.8911 98.3344 42.2624 99.5106 44.0221C100.687 45.7818 101.315 47.8509 101.315 49.9675C101.311 52.8017 100.185 55.519 98.1817 57.5244C96.1789 59.5297 93.4629 60.6595 90.6287 60.6664ZM96.0302 47.6507L91.761 54.4579C91.6071 54.7083 91.3982 54.9205 91.1501 55.0784C90.9021 55.2362 90.6214 55.3356 90.3293 55.369H90.108C89.591 55.3657 89.0957 55.1602 88.7284 54.7963L85.4874 51.5554C85.3054 51.3742 85.1608 51.1589 85.062 50.9219C84.9632 50.6848 84.912 50.4306 84.9114 50.1738C84.9108 49.917 84.9607 49.6625 85.0585 49.425C85.1562 49.1875 85.2998 48.9716 85.4809 48.7895C85.6621 48.6075 85.8774 48.4629 86.1144 48.3641C86.3515 48.2652 86.6057 48.2141 86.8625 48.2135C87.1193 48.2128 87.3738 48.2628 87.6113 48.3606C87.8488 48.4583 88.0647 48.6018 88.2468 48.783L89.7566 50.2929L92.7242 45.5681C92.8536 45.3378 93.0284 45.1361 93.238 44.9753C93.4476 44.8145 93.6877 44.6979 93.9437 44.6325C94.1997 44.5672 94.4662 44.5545 94.7273 44.5953C94.9883 44.636 95.2384 44.7292 95.4623 44.8694C95.6863 45.0096 95.8794 45.1938 96.0301 45.4108C96.1808 45.6278 96.2858 45.8731 96.3389 46.1319C96.392 46.3908 96.392 46.6576 96.339 46.9165C96.2859 47.1753 96.1809 47.4206 96.0302 47.6376V47.6507ZM90.6287 70.7927C87.737 70.7901 84.9097 71.6461 82.505 73.2521C80.1004 74.8581 78.2266 77.1418 77.1212 79.8139C76.0158 82.4859 75.7286 85.4259 76.2959 88.2614C76.8632 91.0968 78.2595 93.7001 80.3079 95.7411C82.3563 97.7822 84.9645 99.1692 87.8019 99.7263C90.6394 100.284 93.5784 99.9858 96.2465 98.8708C98.9145 97.7559 101.192 95.874 102.789 93.4636C104.386 91.0532 105.232 88.2229 105.219 85.3312C105.199 81.4727 103.653 77.7789 100.92 75.0553C98.1866 72.3317 94.4872 70.7995 90.6287 70.7927ZM90.6287 96.0953C88.5121 96.0978 86.4422 95.4726 84.6811 94.2985C82.92 93.1245 81.5466 91.4544 80.7348 89.4997C79.9231 87.5449 79.7093 85.3933 80.1207 83.3171C80.532 81.2408 81.55 79.3332 83.0457 77.8356C84.5415 76.3381 86.4478 75.3178 88.5236 74.9039C90.5993 74.49 92.7512 74.7011 94.7069 75.5105C96.6627 76.3199 98.3344 77.6912 99.5106 79.451C100.687 81.2107 101.315 83.2797 101.315 85.3963C101.294 88.2193 100.16 90.9199 98.1589 92.9112C96.1579 94.9025 93.4517 96.0234 90.6287 96.0302V96.0953ZM96.0302 83.0795L91.761 89.8868C91.6064 90.1354 91.397 90.3456 91.1489 90.5012C90.9008 90.6568 90.6205 90.7538 90.3293 90.7848H90.108C89.8514 90.7868 89.597 90.7371 89.36 90.6387C89.123 90.5403 88.9082 90.3953 88.7284 90.2122L85.4874 86.9712C85.3048 86.7908 85.1599 86.576 85.0609 86.3392C84.962 86.1023 84.911 85.8482 84.911 85.5916C84.911 85.3349 84.962 85.0808 85.0609 84.8439C85.1599 84.6071 85.3048 84.3923 85.4874 84.2119C85.8552 83.8494 86.3508 83.6462 86.8671 83.6462C87.3834 83.6462 87.879 83.8494 88.2468 84.2119L89.7566 85.7217L92.7242 80.984C92.8609 80.7669 93.0391 80.5789 93.2485 80.4307C93.4579 80.2825 93.6944 80.1769 93.9446 80.1201C94.1948 80.0633 94.4537 80.0563 94.7066 80.0996C94.9595 80.1429 95.2014 80.2355 95.4185 80.3722C95.6355 80.509 95.8235 80.6871 95.9718 80.8965C96.12 81.1059 96.2255 81.3425 96.2823 81.5927C96.3391 81.8429 96.3461 82.1018 96.3028 82.3547C96.2596 82.6075 96.1669 82.8494 96.0302 83.0665V83.0795Z" fill="white"/>
</svg>
