<svg width="100" height="100" viewBox="0 0 100 100" fill="none" xmlns="http://www.w3.org/2000/svg">
<path d="M97.7273 22.7273H75V2.27273C75 1.01591 73.9841 0 72.7273 0H27.2727C26.0159 0 25 1.01591 25 2.27273V22.7273H2.27273C1.01591 22.7273 0 23.7432 0 25V84.0909C0 85.3477 1.01591 86.3636 2.27273 86.3636H35.4841L32.4523 95.4545H13.6364C12.3795 95.4545 11.3636 96.4705 11.3636 97.7273C11.3636 98.9841 12.3795 100 13.6364 100H34.0909H65.9091H86.3636C87.6205 100 88.6364 98.9841 88.6364 97.7273C88.6364 96.4705 87.6205 95.4545 86.3636 95.4545H67.5477L64.5159 86.3636H97.7273C98.9841 86.3636 100 85.3477 100 84.0909V25C100 23.7432 98.9841 22.7273 97.7273 22.7273ZM95.4545 27.2727V31.8182H75V27.2727H95.4545ZM29.5455 4.54545H70.4545V72.7273H29.5455V4.54545ZM62.7545 95.4545H37.2455L40.275 86.3636H59.7273L62.7545 95.4545ZM61.3636 81.8182H38.6364H4.54545V36.3636H18.1818C19.4386 36.3636 20.4545 35.3477 20.4545 34.0909C20.4545 32.8341 19.4386 31.8182 18.1818 31.8182H4.54545V27.2727H25V75C25 76.2568 26.0159 77.2727 27.2727 77.2727H72.7273C73.9841 77.2727 75 76.2568 75 75V36.3636H95.4545V81.8182H61.3636Z" fill="white"/>
<path d="M56.8183 63.6367H43.1819C41.9251 63.6367 40.9092 64.6526 40.9092 65.9094C40.9092 67.1663 41.9251 68.1822 43.1819 68.1822H56.8183C58.0751 68.1822 59.091 67.1663 59.091 65.9094C59.091 64.6526 58.0751 63.6367 56.8183 63.6367Z" fill="white"/>
<path d="M49.9996 47.7268C52.9406 47.7268 55.6587 46.7814 57.8883 45.1927L64.3019 51.6064C64.7451 52.0496 65.3269 52.2723 65.9087 52.2723C66.4906 52.2723 67.0724 52.0496 67.5156 51.6064C68.4042 50.7177 68.4042 49.2814 67.5156 48.3927L61.1019 41.9791C62.6906 39.7496 63.636 37.0314 63.636 34.0905C63.636 26.57 57.5201 20.4541 49.9996 20.4541C42.4792 20.4541 36.3633 26.57 36.3633 34.0905C36.3633 41.6109 42.4792 47.7268 49.9996 47.7268ZM49.9996 24.9996C55.0133 24.9996 59.0906 29.0768 59.0906 34.0905C59.0906 39.1041 55.0133 43.1814 49.9996 43.1814C44.986 43.1814 40.9087 39.1041 40.9087 34.0905C40.9087 29.0768 44.986 24.9996 49.9996 24.9996Z" fill="white"/>
</svg>
