<svg width="101" height="100" viewBox="0 0 101 100" fill="none" xmlns="http://www.w3.org/2000/svg">
<path d="M99.9267 81.4193C99.6489 79.8635 98.8821 78.6411 97.6486 77.8077C95.6038 76.4186 92.4255 76.1852 87.9359 77.0853L66.6993 81.2193C64.9213 78.0744 60.6095 75.6851 55.9865 75.6851H52.1859C48.6409 75.6851 47.2185 74.785 44.8404 73.2959C44.2514 72.918 43.5735 72.4957 42.8178 72.0623C36.9614 68.6618 32.5273 68.9174 25.8041 69.2952C24.5705 69.3619 23.2926 69.4397 21.8812 69.4953L16.4026 69.7175L16.4137 68.9952C16.4248 68.0839 16.0692 67.2171 15.4247 66.5615C14.7801 65.9058 13.9244 65.5391 13.0021 65.528L3.65618 65.4502C3.64507 65.4502 3.63396 65.4502 3.62285 65.4502C1.74478 65.4502 0.200092 66.9727 0.188979 68.8618L6.0451e-05 91.3209C-0.0110524 93.2101 1.51141 94.7659 3.4117 94.7881L12.7576 94.8659C12.7687 94.8659 12.7798 94.8659 12.7909 94.8659C13.6911 94.8659 14.5468 94.5214 15.2024 93.8768C15.8581 93.2323 16.2248 92.3766 16.2359 91.4542V91.0986C18.6141 91.7543 20.4255 92.0099 22.059 92.2321C23.2481 92.3988 24.3705 92.5544 25.6263 92.8433C27.96 93.399 30.7937 94.9659 33.5275 96.4883C34.861 97.2218 36.2279 97.9886 37.5392 98.6331C39.4395 99.5666 41.3176 100 43.429 100H57.3423C59.3315 100 60.9206 99.5333 62.3431 99.0332L96.5484 86.9535C99.071 86.0534 100.382 83.9308 99.9267 81.4193ZM13.2021 91.8654C13.1354 91.9321 12.991 92.0432 12.7798 92.0432L3.43393 91.9654C3.10054 91.9654 2.83383 91.6876 2.83383 91.3542L3.03387 68.8729C3.03387 68.5396 3.31169 68.2729 3.63396 68.2729L12.9799 68.3506C13.191 68.3506 13.3355 68.4618 13.4021 68.5285C13.4688 68.5951 13.5799 68.7396 13.5799 68.9507L13.3799 91.432C13.3799 91.6543 13.2688 91.7987 13.2021 91.8654ZM95.5816 84.2864L61.3763 96.3661C60.0094 96.844 58.7981 97.1662 57.3201 97.1662H43.4179C41.7288 97.1662 40.2952 96.8328 38.7728 96.0883C37.5281 95.4771 36.2501 94.7659 34.8944 94.0213C31.9939 92.4099 28.9823 90.743 26.2708 90.0985C24.8817 89.7651 23.6926 89.6095 22.4369 89.4317C20.6588 89.1872 18.8252 88.9316 16.2581 88.1648L16.3915 72.5402L22.0146 72.3068C23.437 72.2512 24.7261 72.1735 25.9819 72.1068C32.6274 71.7289 36.2946 71.5178 41.4065 74.496C42.1177 74.9072 42.74 75.3073 43.3512 75.6851C45.8627 77.2631 47.8408 78.5078 52.1971 78.5078H55.9977C60.8317 78.5078 64.7323 81.6638 64.7323 84.2753C64.7323 85.3311 63.8767 86.1979 62.8098 86.1979H47.9964C47.2185 86.1979 46.574 86.8313 46.574 87.6203C46.574 88.4093 47.2074 89.0427 47.9964 89.0427H62.7987C65.4213 89.0427 67.555 86.9091 67.555 84.2864C67.555 84.1753 67.555 84.0642 67.5439 83.942L88.4916 79.8635C93.059 78.9523 95.126 79.5079 96.0594 80.1525C96.6484 80.5525 96.9929 81.1193 97.1374 81.9194C97.3374 83.0529 96.8151 83.8531 95.5816 84.2864ZM64.9546 58.3269C77.7788 58.3269 88.2249 47.8919 88.2249 35.0566C88.2249 22.2324 77.7899 11.7863 64.9546 11.7863C52.1304 11.7863 41.6843 22.2213 41.6843 35.0566C41.6843 47.8919 52.1193 58.3269 64.9546 58.3269ZM64.9546 14.6312C76.223 14.6312 85.3911 23.7993 85.3911 35.0677C85.3911 46.3361 76.223 55.5042 64.9546 55.5042C53.6862 55.5042 44.5181 46.3361 44.5181 35.0677C44.5181 23.7882 53.6862 14.6312 64.9546 14.6312ZM59.3204 45.1693C60.1539 45.1693 61.0095 44.9137 61.743 44.4025L78.59 32.6895C79.5235 32.045 80.1459 31.0671 80.3459 29.9558C80.5459 28.8334 80.3014 27.711 79.6569 26.7775C78.3233 24.855 75.6674 24.3771 73.7449 25.7107L60.0649 35.2233L55.7198 30.0891C54.9864 29.2223 53.964 28.7 52.8305 28.6C51.697 28.5 50.5968 28.8556 49.7411 29.5891C47.952 31.1004 47.7297 33.7897 49.241 35.5678L56.0866 43.6579C56.92 44.647 58.1091 45.1693 59.3204 45.1693ZM51.5636 31.745C51.8526 31.5005 52.2193 31.3893 52.5971 31.4116C52.975 31.4449 53.3083 31.6227 53.5528 31.9116L58.7314 38.0348C59.1981 38.5905 60.0205 38.7016 60.6206 38.2793L75.3562 28.0333C76.0008 27.5888 76.8787 27.7443 77.3232 28.3889C77.5343 28.7 77.6232 29.0779 77.5566 29.4446C77.4899 29.8113 77.2787 30.1447 76.9676 30.3558L60.1205 42.0799C59.5315 42.4911 58.7092 42.3799 58.2424 41.8243L51.3969 33.7342C50.8969 33.1452 50.9635 32.2561 51.5636 31.745ZM31.4383 33.0229C32.0273 34.4009 32.0273 35.7345 31.4383 37.1013L30.5493 39.1461C29.0712 42.5577 30.127 46.4917 33.1163 48.7143L34.9055 50.0478C36.1057 50.9368 36.7724 52.0926 36.9502 53.5817L37.2058 55.8043C37.6392 59.4937 40.5175 62.383 44.2069 62.8053L46.4295 63.0609C47.9186 63.2387 49.0743 63.9055 49.9634 65.1057L51.2969 66.8949C53.5195 69.8842 57.4534 70.9288 60.8651 69.4619L62.9098 68.5729C64.2878 67.9839 65.6214 67.9839 66.9882 68.5729L69.033 69.4619C70.0665 69.9064 71.1444 70.1176 72.2113 70.1176C74.6672 70.1176 77.0565 68.973 78.6012 66.8949L79.9347 65.1057C80.8237 63.9055 81.9795 63.2387 83.4686 63.0609L85.6912 62.8053C89.3806 62.3719 92.27 59.4937 92.6922 55.8043L92.9478 53.5817C93.1256 52.0926 93.7924 50.9368 94.9926 50.0478L96.7818 48.7143C99.7711 46.4917 100.816 42.5577 99.3488 39.1461L98.4598 37.1013C97.8708 35.7234 97.8708 34.3898 98.4598 33.0229L99.3488 30.9782C100.827 27.5665 99.7711 23.6326 96.7818 21.41L94.9926 20.0765C93.7924 19.1874 93.1256 18.0317 92.9478 16.5426L92.6922 14.32C92.2588 10.6306 89.3806 7.74123 85.6912 7.31894L83.4686 7.06334C81.9795 6.88554 80.8237 6.21877 79.9347 5.01858L78.6012 3.22941C76.3786 0.240059 72.4446 -0.804547 69.033 0.662347L66.9882 1.55137C65.6103 2.14035 64.2767 2.14035 62.9098 1.55137L60.8651 0.662347C57.4534 -0.81566 53.5195 0.240059 51.2969 3.22941L49.9634 5.01858C49.0743 6.21877 47.9186 6.88554 46.4295 7.06334L44.2069 7.31894C40.5175 7.75234 37.6281 10.6306 37.2058 14.32L36.9502 16.5426C36.7724 18.0317 36.1057 19.1874 34.9055 20.0765L33.1163 21.41C30.127 23.6326 29.0824 27.5665 30.5493 30.9782L31.4383 33.0229ZM34.8055 23.677L36.5946 22.3435C38.406 20.9988 39.4951 19.0985 39.7618 16.8649L40.0174 14.6423C40.2952 12.2197 42.1177 10.4083 44.5292 10.1305L46.7518 9.87489C48.9966 9.6193 50.8857 8.51912 52.2304 6.70773L53.5639 4.91856C55.0197 2.9627 57.4979 2.29593 59.7316 3.26275L61.7763 4.15178C63.8433 5.0408 66.0325 5.0408 68.1106 4.15178L70.1554 3.26275C72.3891 2.29593 74.8672 2.9627 76.323 4.91856L77.6566 6.70773C79.0012 8.51912 80.9015 9.60818 83.1352 9.87489L85.3578 10.1305C87.7804 10.4083 89.5918 12.2308 89.8696 14.6423L90.1252 16.8649C90.3808 19.1097 91.4809 20.9988 93.2923 22.3435L95.0815 23.677C97.0374 25.1328 97.7041 27.611 96.7373 29.8447L95.8483 31.8894C94.9593 33.9564 94.9593 36.1456 95.8483 38.2237L96.7373 40.2685C97.7041 42.5022 97.0374 44.9803 95.0815 46.4361L93.2923 47.7697C91.4809 49.1143 90.3919 51.0146 90.1252 53.2483L89.8696 55.4709C89.5918 57.8935 87.7692 59.7049 85.3578 59.9827L83.1352 60.2383C80.8904 60.4939 79.0012 61.594 77.6566 63.4054L76.323 65.1946C74.8672 67.1505 72.3891 67.8172 70.1554 66.8504L68.1106 65.9614C67.0771 65.5169 66.0103 65.2946 64.9435 65.2946C63.8766 65.2946 62.8098 65.5169 61.7763 65.9614L59.7316 66.8504C57.4979 67.8172 55.0197 67.1505 53.5639 65.1946L52.2304 63.4165C50.8857 61.6052 48.9854 60.5161 46.7518 60.2494L44.5292 59.9938C42.1066 59.716 40.2952 57.8935 40.0174 55.482L39.7618 53.2594C39.5062 51.0146 38.406 49.1254 36.5946 47.7808L34.8055 46.4472C32.8496 44.9915 32.1828 42.5133 33.1497 40.2796L34.0387 38.2349C34.9277 36.1679 34.9277 33.9786 34.0387 31.9005L33.1497 29.8558C32.1828 27.611 32.8496 25.1328 34.8055 23.677Z" fill="white"/>
</svg>
