<svg width="96" height="100" viewBox="0 0 96 100" fill="none" xmlns="http://www.w3.org/2000/svg">
<path d="M0 98.9529C0 99.2306 0.110319 99.4969 0.306687 99.6933C0.503056 99.8897 0.769389 100 1.0471 100H94.0083C94.286 100 94.5524 99.8897 94.7488 99.6933C94.9451 99.4969 95.0554 99.2306 95.0554 98.9529C95.0554 69.2991 67.9356 61.4983 63.0143 60.336L61.7473 48.6399C63.2659 46.4 64.3329 43.8854 64.8886 41.2369C66.2812 40.5877 67.4226 38.4935 68.4697 34.7135C69.5168 30.9335 69.5167 28.6299 68.3859 27.3001C68.0519 26.8919 67.6089 26.5868 67.1084 26.4205C67.2341 25.9493 67.3597 25.4467 67.4749 24.8708C68.6686 17.6982 68.0194 12.4732 65.5483 9.34237C64.6076 8.09819 63.2765 7.20585 61.7682 6.80839C60.493 4.93681 58.7826 3.40256 56.7841 2.33729C53.591 0.493722 49.896 -0.290744 46.2293 0.0965012C44.7786 0.169529 43.3447 0.440802 41.9676 0.902766C40.3303 1.46199 38.7795 2.24798 37.3604 3.23779C35.647 4.3155 34.0778 5.60681 32.6904 7.08064C30.1762 9.54696 28.3994 12.6654 27.5596 16.0857C26.9145 18.9849 26.9395 21.9932 27.6329 24.8813C27.7271 25.4153 27.8423 25.9284 27.9784 26.41C27.4913 26.5748 27.0598 26.8721 26.7324 27.2687C25.5387 28.5985 25.5387 31.0277 26.5858 34.7135C27.6329 38.3993 28.7428 40.5773 30.104 41.2369C30.6659 43.9492 31.7545 46.5248 33.3081 48.8179L32.0412 60.336C27.1303 61.5297 0 69.2887 0 98.9529ZM92.9403 97.9058H2.11514C2.73292 70.5033 27.4758 63.5087 32.3972 62.3883L40.8263 81.4245C41.3919 82.7286 42.3292 83.8371 43.521 84.6118C44.7128 85.3864 46.1063 85.7929 47.5277 85.7804C48.9488 85.7915 50.3418 85.3845 51.5333 84.61C52.7249 83.8355 53.6624 82.7277 54.2291 81.4245L62.6687 62.3883C67.5796 63.5087 92.333 70.5033 92.9403 97.9058ZM45.9571 70.1159L43.7582 65.184L47.5277 62.1998L51.2973 65.184L49.0984 70.1159C49.0392 70.2494 49.0086 70.3939 49.0086 70.5399C49.0086 70.686 49.0392 70.8305 49.0984 70.964L52.826 79.4141L52.313 80.5764C51.9019 81.5024 51.231 82.2892 50.3816 82.8415C49.5322 83.3938 48.5409 83.6877 47.5277 83.6877C46.5146 83.6877 45.5232 83.3938 44.6738 82.8415C43.8244 82.2892 43.1535 81.5024 42.7425 80.5764L42.2189 79.4036L45.9571 71.0268C46.0257 70.8848 46.0613 70.7291 46.0613 70.5714C46.0613 70.4136 46.0257 70.2579 45.9571 70.1159ZM31.0988 39.3731C31.0988 39.3731 29.9993 39.1532 28.6067 34.1376C27.4863 30.1482 28.0098 28.9021 28.2926 28.6089C28.3812 28.5075 28.4935 28.4296 28.6196 28.3821C28.7457 28.3346 28.8815 28.319 29.015 28.3367H29.2245C29.4017 28.3535 29.5803 28.3248 29.7434 28.2533C29.9064 28.1819 30.0486 28.07 30.1564 27.9283C30.2715 27.7825 30.3458 27.6087 30.3715 27.4246C30.3973 27.2406 30.3736 27.0531 30.303 26.8812C30.0088 26.0899 29.788 25.2732 29.6433 24.4415C29.0447 21.8438 29.0447 19.1441 29.6433 16.5464C30.3994 13.4857 31.9951 10.697 34.2505 8.49422C35.5181 7.1506 36.95 5.97206 38.5122 4.98644C39.7794 4.09969 41.1646 3.39478 42.6273 2.89225C43.8353 2.48829 45.0931 2.25223 46.3654 2.19069C49.6375 1.827 52.94 2.52052 55.7893 4.16971C57.6044 5.10947 59.1367 6.5153 60.229 8.24291C60.3114 8.40304 60.4337 8.53921 60.5841 8.63826C60.7346 8.73731 60.908 8.79589 61.0876 8.80835C62.2415 9.03357 63.2648 9.69327 63.9462 10.6512C65.3807 12.4732 66.8048 16.3579 65.454 24.5043C65.2774 25.3443 65.0394 26.1703 64.742 26.9755C64.6848 27.1381 64.6687 27.3123 64.695 27.4826C64.7214 27.653 64.7893 27.8142 64.8929 27.952C64.9965 28.0897 65.1325 28.1998 65.2888 28.2724C65.4452 28.345 65.617 28.3779 65.7891 28.3681C66.4488 28.3158 66.6582 28.5566 66.7419 28.6404C67.0247 28.9754 67.5482 30.1901 66.4278 34.1481C65.0142 39.1637 63.9253 39.3836 63.9148 39.3836C63.6769 39.4 63.4517 39.4972 63.2765 39.6591C63.1013 39.8209 62.9867 40.0377 62.9515 40.2736C62.1871 45.5091 57.9987 52.0325 51.559 54.3571C48.9298 55.3045 46.0523 55.3045 43.4231 54.3571C37.0568 52.1058 32.8684 45.5719 32.0621 40.2631C32.0269 40.0272 31.9122 39.8105 31.737 39.6486C31.5619 39.4868 31.3367 39.3896 31.0988 39.3731ZM42.7215 56.3465C45.8079 57.4569 49.1847 57.4569 52.2711 56.3465C55.2115 55.2438 57.8312 53.4266 59.8939 51.0587L60.941 61.048L53.9778 76.8278L51.203 70.5452L53.5381 65.3097C53.6327 65.0977 53.6543 64.8603 53.5993 64.6347C53.5443 64.4092 53.416 64.2083 53.2344 64.0636L48.1769 60.0533C47.9921 59.9072 47.7633 59.8277 47.5277 59.8277C47.2921 59.8277 47.0634 59.9072 46.8785 60.0533L41.821 64.0636C41.6395 64.2083 41.5111 64.4092 41.4561 64.6347C41.4012 64.8603 41.4227 65.0977 41.5174 65.3097L43.8524 70.5452L41.0776 76.8278L34.0725 61.0271L35.1196 51.1948C37.1777 53.5267 39.793 55.2991 42.7215 56.3465Z" fill="white"/>
</svg>
