<svg width="100" height="100" viewBox="0 0 100 100" fill="none" xmlns="http://www.w3.org/2000/svg">
<path d="M94.5312 0H5.46875C4.01834 0 2.62735 0.57617 1.60176 1.60176C0.57617 2.62735 0 4.01835 0 5.46875C0 6.91915 0.57617 8.31015 1.60176 9.33574C2.62735 10.3613 4.01834 10.9375 5.46875 10.9375H6.25V67.1875C6.25 67.6019 6.41462 67.9993 6.70764 68.2923C7.00067 68.5853 7.39809 68.75 7.8125 68.75H60.1562V65.625H9.37499V10.9375H90.6249V56.25C90.7109 56.3984 90.7968 56.539 90.8671 56.6875L93.7499 61.2343V10.9375H94.5312C95.9816 10.9375 97.3726 10.3613 98.3982 9.33574C99.4238 8.31015 99.9999 6.91915 99.9999 5.46875C99.9999 4.01835 99.4238 2.62735 98.3982 1.60176C97.3726 0.57617 95.9816 0 94.5312 0ZM94.5312 7.8125H5.46875C4.84715 7.8125 4.251 7.56557 3.81147 7.12603C3.37193 6.68649 3.125 6.09035 3.125 5.46875C3.125 4.84715 3.37193 4.251 3.81147 3.81147C4.251 3.37193 4.84715 3.125 5.46875 3.125H94.5312C95.1528 3.125 95.7489 3.37193 96.1885 3.81147C96.628 4.251 96.8749 4.84715 96.8749 5.46875C96.8749 6.09035 96.628 6.68649 96.1885 7.12603C95.7489 7.56557 95.1528 7.8125 94.5312 7.8125Z" fill="white"/>
<path d="M49.4765 40.625H14.0625C13.6481 40.625 13.2507 40.7896 12.9576 41.0826C12.6646 41.3757 12.5 41.7731 12.5 42.1875C12.5 42.6019 12.6646 42.9993 12.9576 43.2924C13.2507 43.5854 13.6481 43.75 14.0625 43.75H49.4765C49.8909 43.75 50.2884 43.5854 50.5814 43.2924C50.8744 42.9993 51.039 42.6019 51.039 42.1875C51.039 41.7731 50.8744 41.3757 50.5814 41.0826C50.2884 40.7896 49.8909 40.625 49.4765 40.625Z" fill="white"/>
<path d="M49.4765 46.875H14.0625C13.6481 46.875 13.2507 47.0396 12.9576 47.3326C12.6646 47.6257 12.5 48.0231 12.5 48.4375C12.5 48.8519 12.6646 49.2493 12.9576 49.5424C13.2507 49.8354 13.6481 50 14.0625 50H49.4765C49.8909 50 50.2884 49.8354 50.5814 49.5424C50.8744 49.2493 51.039 48.8519 51.039 48.4375C51.039 48.0231 50.8744 47.6257 50.5814 47.3326C50.2884 47.0396 49.8909 46.875 49.4765 46.875Z" fill="white"/>
<path d="M49.4765 53.125H14.0625C13.6481 53.125 13.2507 53.2896 12.9576 53.5826C12.6646 53.8757 12.5 54.2731 12.5 54.6875C12.5 55.1019 12.6646 55.4993 12.9576 55.7924C13.2507 56.0854 13.6481 56.25 14.0625 56.25H49.4765C49.8909 56.25 50.2884 56.0854 50.5814 55.7924C50.8744 55.4993 51.039 55.1019 51.039 54.6875C51.039 54.2731 50.8744 53.8757 50.5814 53.5826C50.2884 53.2896 49.8909 53.125 49.4765 53.125Z" fill="white"/>
<path d="M49.4765 59.375H14.0625C13.6481 59.375 13.2507 59.5396 12.9576 59.8326C12.6646 60.1257 12.5 60.5231 12.5 60.9375C12.5 61.3519 12.6646 61.7493 12.9576 62.0424C13.2507 62.3354 13.6481 62.5 14.0625 62.5H49.4765C49.8909 62.5 50.2884 62.3354 50.5814 62.0424C50.8744 61.7493 51.039 61.3519 51.039 60.9375C51.039 60.5231 50.8744 60.1257 50.5814 59.8326C50.2884 59.5396 49.8909 59.375 49.4765 59.375Z" fill="white"/>
<path d="M60.6798 23.9609C61.6682 23.961 62.6313 23.6487 63.4315 23.0686C64.2317 22.4884 64.828 21.6702 65.1353 20.7308C65.4426 19.7914 65.4451 18.7789 65.1425 17.8381C64.8398 16.8972 64.2475 16.076 63.4502 15.4919C62.6528 14.9079 61.6913 14.5908 60.7029 14.586C59.7146 14.5812 58.75 14.8889 57.947 15.4652C57.144 16.0415 56.5438 16.8569 56.232 17.7948C55.9202 18.7327 55.9129 19.7452 56.211 20.6875L47.9298 27.2969C47.1122 26.6715 46.1115 26.3327 45.0821 26.3327C44.0528 26.3327 43.0521 26.6715 42.2345 27.2969L39.9845 25C40.2925 24.2794 40.415 23.4931 40.3407 22.7129C40.2663 21.9328 39.9976 21.1837 39.559 20.5342C39.1205 19.8848 38.5261 19.3556 37.8302 18.9952C37.1343 18.6347 36.3592 18.4545 35.5757 18.471C34.7922 18.4875 34.0253 18.7002 33.3452 19.0896C32.6651 19.4789 32.0935 20.0326 31.6826 20.7C31.2718 21.3673 31.0348 22.127 30.9934 22.9096C30.9519 23.6922 31.1073 24.4727 31.4454 25.1797L27.7657 28.9062C26.7466 28.5688 25.6418 28.5964 24.6407 28.9844L20.5704 23.0312C21.2667 22.1722 21.6369 21.0947 21.6156 19.9891C21.5942 18.8836 21.1827 17.8211 20.4538 16.9896C19.7249 16.1581 18.7255 15.6111 17.6322 15.4452C16.5389 15.2793 15.4222 15.5052 14.4794 16.083C13.5367 16.6609 12.8285 17.5534 12.4801 18.6029C12.1318 19.6523 12.1657 20.7912 12.5758 21.8181C12.9859 22.845 13.7458 23.6939 14.7213 24.2147C15.6967 24.7355 16.8249 24.8946 17.9064 24.6641L22.2579 31.0234C21.8402 31.7436 21.6219 32.562 21.6253 33.3946C21.6288 34.2271 21.8539 35.0437 22.2775 35.7604C22.7011 36.4771 23.308 37.0681 24.0357 37.4725C24.7634 37.8769 25.5857 38.0802 26.418 38.0615C27.2504 38.0428 28.0627 37.8028 28.7715 37.3661C29.4803 36.9294 30.0601 36.3118 30.4511 35.5768C30.8421 34.8418 31.0303 34.0159 30.9964 33.1841C30.9624 32.3522 30.7075 31.5444 30.2579 30.8437L33.672 27.4297C34.329 27.7453 35.0511 27.902 35.7799 27.887C36.5087 27.8721 37.2237 27.686 37.8673 27.3437L40.4845 29.9609C40.3252 30.6483 40.323 31.3627 40.4783 32.0509C40.6335 32.7392 40.9421 33.3835 41.3811 33.9359C41.8201 34.4883 42.3781 34.9344 43.0135 35.2411C43.6489 35.5477 44.3453 35.707 45.0509 35.707C45.7564 35.707 46.4529 35.5477 47.0883 35.2411C47.7237 34.9344 48.2817 34.4883 48.7207 33.9359C49.1596 33.3835 49.4683 32.7392 49.6235 32.0509C49.7787 31.3627 49.7766 30.6483 49.6173 29.9609L58.0938 23.1953C58.8622 23.6983 59.7614 23.9646 60.6798 23.9609ZM60.6798 17.7109C60.9888 17.7109 61.2909 17.8026 61.5479 17.9743C61.8048 18.146 62.0051 18.39 62.1233 18.6755C62.2416 18.961 62.2725 19.2752 62.2123 19.5783C62.152 19.8814 62.0032 20.1598 61.7846 20.3783C61.5661 20.5968 61.2877 20.7456 60.9846 20.8059C60.6815 20.8662 60.3674 20.8353 60.0818 20.717C59.7963 20.5987 59.5523 20.3985 59.3806 20.1415C59.2089 19.8846 59.1173 19.5825 59.1173 19.2734C59.1173 18.859 59.2819 18.4616 59.5749 18.1686C59.868 17.8756 60.2654 17.7109 60.6798 17.7109ZM16.9298 21.6172C16.6208 21.6172 16.3187 21.5255 16.0617 21.3539C15.8048 21.1822 15.6045 20.9381 15.4863 20.6526C15.368 20.3671 15.337 20.053 15.3973 19.7499C15.4576 19.4468 15.6064 19.1684 15.825 18.9498C16.0435 18.7313 16.3219 18.5825 16.625 18.5222C16.9281 18.4619 17.2422 18.4929 17.5278 18.6111C17.8133 18.7294 18.0573 18.9297 18.229 19.1866C18.4007 19.4436 18.4923 19.7457 18.4923 20.0547C18.4923 20.4691 18.3277 20.8665 18.0347 21.1595C17.7416 21.4526 17.3442 21.6172 16.9298 21.6172ZM26.3048 34.8984C25.9958 34.8984 25.6937 34.8068 25.4367 34.6351C25.1798 34.4634 24.9795 34.2194 24.8612 33.9339C24.743 33.6484 24.712 33.3342 24.7723 33.0311C24.8326 32.728 24.9814 32.4496 25.2 32.2311C25.4185 32.0126 25.6969 31.8637 26 31.8035C26.3031 31.7432 26.6172 31.7741 26.9028 31.8924C27.1883 32.0106 27.4323 32.2109 27.604 32.4678C27.7757 32.7248 27.8673 33.0269 27.8673 33.3359C27.8673 33.7503 27.7027 34.1478 27.4097 34.4408C27.1166 34.7338 26.7192 34.8984 26.3048 34.8984ZM35.6798 24.7422C35.3708 24.7422 35.0687 24.6505 34.8117 24.4789C34.5548 24.3072 34.3545 24.0631 34.2362 23.7776C34.118 23.4921 34.087 23.1779 34.1473 22.8749C34.2076 22.5718 34.3564 22.2933 34.5749 22.0748C34.7935 21.8563 35.0719 21.7075 35.375 21.6472C35.6781 21.5869 35.9922 21.6179 36.2777 21.7361C36.5633 21.8544 36.8073 22.0547 36.979 22.3116C37.1507 22.5686 37.2423 22.8706 37.2423 23.1797C37.2423 23.5941 37.0777 23.9915 36.7847 24.2845C36.4916 24.5776 36.0942 24.7422 35.6798 24.7422ZM45.0548 32.5547C44.7458 32.5547 44.4437 32.463 44.1867 32.2913C43.9298 32.1197 43.7295 31.8756 43.6112 31.5901C43.493 31.3046 43.462 30.9904 43.5223 30.6874C43.5826 30.3843 43.7314 30.1058 43.9499 29.8873C44.1685 29.6688 44.4469 29.52 44.75 29.4597C45.0531 29.3994 45.3672 29.4304 45.6527 29.5486C45.9382 29.6669 46.1823 29.8672 46.354 30.1241C46.5257 30.3811 46.6173 30.6831 46.6173 30.9922C46.6173 31.4066 46.4527 31.804 46.1596 32.097C45.8666 32.3901 45.4692 32.5547 45.0548 32.5547Z" fill="white"/>
<path d="M83.508 28.9064C76.9143 23.7892 71.3284 26.5626 69.2346 28.0235C67.2815 29.3673 67.0081 30.047 67.2424 30.8595C67.25 31 67.25 31.1408 67.2424 31.2814C67.1804 32.0638 67.2787 32.8507 67.5315 33.5939L67.1877 37.3595C67.1877 37.4064 67.1877 37.4532 67.1877 37.5001C67.1877 39.7793 68.0932 41.9652 69.7048 43.5768C71.3164 45.1884 73.5023 46.0938 75.7815 46.0938C78.0607 46.0938 80.2465 45.1884 81.8582 43.5768C83.4698 41.9652 84.3752 39.7793 84.3752 37.5001C84.3752 37.4532 84.3752 37.4064 84.3752 37.3595L84.2034 35.4767C84.2816 35.3248 84.3344 35.1612 84.3596 34.9923C85.0627 30.1173 83.8987 29.211 83.508 28.9064ZM75.7815 42.9688C74.3419 42.9689 72.9602 42.4014 71.9364 41.3892C70.9126 40.3771 70.3292 39.0021 70.3127 37.5626L70.469 35.8439C71.5199 36.0253 72.5928 36.0411 73.6487 35.8907C74.776 37.2583 76.3716 38.1577 78.1252 38.4142C78.3204 38.4241 78.516 38.4241 78.7112 38.4142C79.5936 38.4072 80.4635 38.2044 81.2581 37.8204C81.1762 39.2159 80.563 40.5271 79.5445 41.4846C78.5259 42.4421 77.1794 42.9732 75.7815 42.9688ZM81.3284 34.0235C80.9616 34.4278 80.5141 34.7506 80.0149 34.9713C79.5157 35.192 78.9758 35.3056 78.4299 35.3048C76.7971 35.1485 75.6331 33.3985 75.6252 33.3907C75.4841 33.1707 75.2899 32.9896 75.0606 32.864C74.8313 32.7384 74.5742 32.6724 74.3127 32.672H74.0627C71.3284 33.1173 70.6252 32.672 70.5159 32.547C70.4065 32.422 70.344 31.8126 70.3518 31.3595C70.3518 31.2579 70.3518 31.1564 70.3518 31.0548C71.6487 29.9454 75.8752 27.086 81.3674 31.1954C81.4686 32.1362 81.4555 33.0859 81.3284 34.0235Z" fill="white"/>
<path d="M95.3124 69.531L88.1327 58.2185C87.9272 57.7987 87.6643 57.4095 87.3515 57.0622C86.517 54.9886 85.1418 53.1767 83.369 51.8152C81.5963 50.4538 79.4909 49.5926 77.2722 49.3213C75.0535 49.0501 72.8027 49.3787 70.7542 50.273C68.7057 51.1673 66.9344 52.5945 65.6249 54.406L64.4374 54.3357L61.8046 46.195C61.6386 45.0387 61.0516 43.9843 60.1562 43.2341C59.6967 42.8431 59.163 42.5489 58.5871 42.369C58.0113 42.1891 57.405 42.1273 56.8046 42.1872C55.5931 42.3474 54.492 42.9745 53.7361 43.9348C52.9801 44.895 52.6291 46.1125 52.7578 47.3278C52.7651 47.4125 52.7808 47.4963 52.8046 47.5778L56.1406 59.8591C56.2811 61.0598 56.8801 62.1598 57.8124 62.9294C58.7073 63.6644 59.854 64.0204 61.0078 63.9216H63.2499V74.2185C63.2522 74.6494 63.3437 75.0752 63.5184 75.4692C63.6932 75.8631 63.9476 76.2166 64.2656 76.5075L66.0937 94.6872C66.3749 97.4997 66.8749 98.8669 67.7499 99.5778C68.0043 99.7761 68.2969 99.9197 68.6093 99.9997H72.3046C73.0353 99.9936 73.7394 99.7252 74.2886 99.2433C74.8379 98.7615 75.1957 98.0983 75.2968 97.3747L75.6952 94.8122L76.1718 97.445C76.2891 98.1525 76.6517 98.7962 77.1959 99.2632C77.7401 99.7303 78.4313 99.991 79.1484 99.9997H82.8124C83.1158 99.9306 83.4008 99.7974 83.6484 99.6091C84.5546 98.9294 85.0234 97.6091 85.3984 94.6872L87.2265 76.5075C87.5808 76.1636 87.8485 75.7405 88.0077 75.2731C88.3887 75.5987 88.8184 75.8623 89.2812 76.0544C89.8543 76.298 90.4709 76.4229 91.0937 76.4216C91.7231 76.4228 92.3458 76.2924 92.9218 76.0388C94.0763 75.5162 94.9785 74.5599 95.4333 73.3771C95.888 72.1942 95.8586 70.8798 95.3515 69.7185C95.3433 69.6551 95.3302 69.5924 95.3124 69.531ZM82.3359 94.3434C82.2471 95.2052 82.0824 96.0575 81.8437 96.8903H79.2734L77.164 85.1716C77.0991 84.8061 76.9062 84.4758 76.6199 84.2396C76.3336 84.0034 75.9726 83.8768 75.6015 83.8825C75.2258 83.878 74.8611 84.0089 74.5742 84.2514C74.2872 84.4939 74.0972 84.8317 74.039 85.2028L72.1953 96.9216H69.8515H69.5937C69.3668 96.0995 69.2228 95.2567 69.164 94.4059L67.5234 77.3435H84.039L82.3359 94.3434ZM85.1562 74.2185H66.4062V64.0075L70.0703 64.0622C70.4847 64.0622 70.8821 63.8976 71.1751 63.6046C71.4681 63.3115 71.6328 62.9141 71.6328 62.4997C71.6328 62.0853 71.4681 61.6879 71.1751 61.3949C70.8821 61.1018 70.4847 60.9372 70.0703 60.9372L60.9531 60.7888H60.7578C60.5792 60.8074 60.3987 60.79 60.2269 60.7377C60.0552 60.6853 59.8956 60.5991 59.7578 60.4841C59.5962 60.3527 59.4625 60.1903 59.3645 60.0065C59.2666 59.8227 59.2064 59.6212 59.1874 59.4138C59.1801 59.3291 59.1644 59.2454 59.1406 59.1638L55.8593 46.9294C55.8402 46.5491 55.9606 46.1748 56.198 45.877C56.4354 45.5792 56.7734 45.3784 57.1484 45.3122C57.33 45.2939 57.5134 45.3121 57.6878 45.3658C57.8622 45.4194 58.0241 45.5075 58.164 45.6247C58.3218 45.7566 58.4521 45.9183 58.5473 46.1007C58.6425 46.283 58.7007 46.4823 58.7187 46.6872C58.7347 46.7981 58.7582 46.9077 58.789 47.0153L61.8437 56.3122C61.9417 56.6093 62.1266 56.8702 62.3746 57.061C62.6225 57.2519 62.922 57.3639 63.2343 57.3825L72.1718 57.906C72.377 57.9183 72.5826 57.89 72.7769 57.8229C72.9712 57.7558 73.1503 57.651 73.3041 57.5146C73.4579 57.3782 73.5833 57.2129 73.6732 57.028C73.7631 56.8432 73.8158 56.6424 73.8281 56.4372C73.8404 56.232 73.8122 56.0264 73.745 55.8321C73.6779 55.6379 73.5731 55.4587 73.4367 55.3049C73.3003 55.1511 73.135 55.0257 72.9501 54.9358C72.7653 54.8459 72.5645 54.7933 72.3593 54.781L69.664 54.6247C71.3591 53.1479 73.533 52.3372 75.7812 52.3435C78.2676 52.3435 80.6522 53.3312 82.4103 55.0893C84.1685 56.8475 85.1562 59.2321 85.1562 61.7185V74.2185ZM91.7577 73.2028C91.3773 73.3591 90.9506 73.3591 90.5702 73.2028C90.1484 73.0219 89.8145 72.6824 89.6406 72.2575C89.5952 72.1561 89.5403 72.0593 89.4765 71.9685L88.2812 70.3122V64.281L92.5937 71.0778C92.7497 71.472 92.7502 71.9108 92.595 72.3053C92.4398 72.6998 92.1405 73.0206 91.7577 73.2028Z" fill="white"/>
</svg>
