<svg width="94" height="100" viewBox="0 0 94 100" fill="none" xmlns="http://www.w3.org/2000/svg">
<path d="M92.5499 50.7556H40.7376V47.057H87.1394C87.9002 47.057 88.5132 46.444 88.5132 45.6832V1.37377C88.5132 0.612913 87.9002 0 87.1394 0H6.79489C6.03403 0 5.42111 0.612913 5.42111 1.37377V45.6832C5.42111 46.444 6.03403 47.057 6.79489 47.057H13.9279V50.7556H1.37377C0.612914 50.7556 0 51.3685 0 52.1293V58.66C0 59.4209 0.612914 60.0338 1.37377 60.0338H5.42111V86.7061C5.42111 87.467 6.03403 88.0799 6.79489 88.0799H9.50016V98.6262C9.50016 99.3871 10.1131 100 10.8739 100H83.0709C83.8318 100 84.4447 99.3871 84.4447 98.6262V88.0799H87.15C87.9108 88.0799 88.5237 87.467 88.5237 86.7061V60.0338H92.5605C93.3214 60.0338 93.9343 59.4209 93.9343 58.66V52.1293C93.9343 51.3685 93.3214 50.7556 92.5605 50.7556H92.5499ZM8.16866 44.3094V2.74754H85.7762V44.3094H40.7482V43.8127C40.7482 40.3783 37.9478 37.5885 34.5134 37.5885H20.1733C16.7389 37.5885 13.9385 40.3783 13.9385 43.8127V44.3094H8.17922H8.16866ZM16.6755 43.8127C16.6755 41.8895 18.2395 40.336 20.1733 40.336H34.5134C36.4366 40.336 38.0006 41.9 38.0006 43.8127V50.7556H16.6755V43.8127ZM12.2477 86.9175C12.2477 84.9942 13.8117 83.4302 15.7455 83.4302H30.0856C32.0089 83.4302 33.5834 84.9942 33.5834 86.9175V97.263H12.2477V86.9175ZM36.3204 86.9175C36.3204 84.9942 37.8844 83.4302 39.8182 83.4302H54.1477C56.071 83.4302 57.6456 84.9942 57.6456 86.9175V97.263H36.331V86.9175H36.3204ZM81.6971 97.263H60.372V86.9175C60.372 84.9942 61.936 83.4302 63.8698 83.4302H78.2099C80.1331 83.4302 81.6971 84.9942 81.6971 86.9175V97.263ZM85.7762 85.3429H84.2333C83.5359 82.6693 81.0948 80.6932 78.2099 80.6932H63.8698C61.9043 80.6932 60.1501 81.6126 59.0088 83.0286C57.8675 81.602 56.1133 80.6932 54.1477 80.6932H39.8182C37.8527 80.6932 36.0985 81.6126 34.9572 83.0286C33.8159 81.602 32.0617 80.6932 30.0962 80.6932H15.7561C12.8606 80.6932 10.4301 82.6693 9.73264 85.3429H8.18979V60.0444H85.7973V85.3429H85.7762ZM91.1867 57.2968H2.74754V53.5137H91.1762V57.2968H91.1867ZM27.3486 35.8554C32.03 35.8554 35.8449 32.0511 35.8449 27.3803C35.8449 22.7095 32.03 18.9052 27.3486 18.9052C22.6672 18.9052 18.8524 22.7095 18.8524 27.3803C18.8524 32.0511 22.6672 35.8554 27.3486 35.8554ZM27.3486 21.6528C30.5189 21.6528 33.0973 24.2206 33.0973 27.3803C33.0973 30.54 30.5189 33.1079 27.3486 33.1079C24.1784 33.1079 21.5999 30.54 21.5999 27.3803C21.5999 24.2206 24.1784 21.6528 27.3486 21.6528ZM22.9209 78.9602C27.6022 78.9602 31.4065 75.1559 31.4065 70.485C31.4065 65.8142 27.6022 62.0099 22.9209 62.0099C18.2395 62.0099 14.4246 65.8142 14.4246 70.485C14.4246 75.1559 18.2395 78.9602 22.9209 78.9602ZM22.9209 64.7575C26.0805 64.7575 28.659 67.3254 28.659 70.485C28.659 73.6447 26.0805 76.2126 22.9209 76.2126C19.7612 76.2126 17.1721 73.6447 17.1721 70.485C17.1721 67.3254 19.7506 64.7575 22.9209 64.7575ZM46.983 78.9602C51.6644 78.9602 55.4792 75.1559 55.4792 70.485C55.4792 65.8142 51.6644 62.0099 46.983 62.0099C42.3016 62.0099 38.4973 65.8142 38.4973 70.485C38.4973 75.1559 42.3016 78.9602 46.983 78.9602ZM46.983 64.7575C50.1532 64.7575 52.7317 67.3254 52.7317 70.485C52.7317 73.6447 50.1532 76.2126 46.983 76.2126C43.8127 76.2126 41.2448 73.6447 41.2448 70.485C41.2448 67.3254 43.8233 64.7575 46.983 64.7575ZM71.0557 78.9602C75.7371 78.9602 79.5519 75.1559 79.5519 70.485C79.5519 65.8142 75.7371 62.0099 71.0557 62.0099C66.3743 62.0099 62.57 65.8142 62.57 70.485C62.57 75.1559 66.3743 78.9602 71.0557 78.9602ZM71.0557 64.7575C74.2259 64.7575 76.8044 67.3254 76.8044 70.485C76.8044 73.6447 74.2259 76.2126 71.0557 76.2126C67.8855 76.2126 65.3176 73.6447 65.3176 70.485C65.3176 67.3254 67.896 64.7575 71.0557 64.7575ZM44.4574 27.0422C44.9329 27.5071 45.5564 27.7713 46.2116 27.7713H47.691C48.0397 29.05 48.547 30.2547 49.1916 31.3643L48.1665 32.3893C47.691 32.8543 47.4374 33.4778 47.4374 34.1435C47.4374 34.8093 47.7016 35.4327 48.1665 35.9083L50.4702 38.1908C51.4425 39.1525 53.017 39.1525 53.9892 38.1908L55.0248 37.1552C56.145 37.7999 57.3602 38.2965 58.6283 38.6347V40.093C58.6283 40.7587 58.8925 41.3822 59.3681 41.8472C59.833 42.3122 60.4565 42.5764 61.1223 42.5764H64.3665C65.7402 42.5658 66.8498 41.4456 66.8498 40.0824V38.6135C68.1074 38.2648 69.3121 37.7681 70.4428 37.113L71.4784 38.1486C72.4506 39.1102 74.0252 39.1102 74.9974 38.1486L77.2799 35.8554C77.7449 35.3905 78.0091 34.7564 78.0091 34.1012C78.0091 33.4355 77.7449 32.812 77.2799 32.347L76.2443 31.3114C76.8889 30.1807 77.3856 28.9654 77.7238 27.7079H79.1821C79.8478 27.7079 80.4924 27.4332 80.9574 26.9576C81.4224 26.4821 81.676 25.848 81.6654 25.214V21.9486C81.6337 20.596 80.5136 19.497 79.1609 19.497H77.7026C77.3539 18.2606 76.8572 17.0559 76.202 15.904L77.2377 14.8684C77.7026 14.4035 77.9563 13.78 77.9563 13.1142C77.9563 12.4485 77.6921 11.8144 77.2165 11.3495L74.9234 9.06689C74.4584 8.60192 73.8349 8.33774 73.1692 8.33774H73.148C72.4823 8.33774 71.8588 8.60192 71.4044 9.06689L70.3688 10.1025C69.2275 9.45789 68.0123 8.96122 66.7653 8.62306V7.16475C66.7547 6.499 66.4905 5.87552 66.0256 5.41055C65.55 4.94558 64.9371 4.68139 64.2714 4.68139H61.0166C59.6534 4.69196 58.5438 5.81211 58.5438 7.17531V8.64419C57.3074 8.98235 56.1027 9.48959 54.9509 10.1448L53.9152 9.11973C52.943 8.15809 51.3685 8.15809 50.3963 9.11973L48.0926 11.4234C47.1415 12.3956 47.1521 13.9702 48.1137 14.9318L49.1493 15.9675C48.5047 17.0982 48.008 18.3134 47.6699 19.5604H46.2116C44.8378 19.5604 43.7282 20.6805 43.7282 22.0543V25.288C43.7388 25.9537 44.003 26.5772 44.4679 27.0422H44.4574ZM47.8601 22.2974C48.9908 22.2974 49.9841 21.5259 50.2695 20.4269C50.5548 19.2856 51.0092 18.1866 51.6115 17.1616C52.1822 16.1894 52.0131 14.9424 51.2205 14.1498L50.2272 13.1565L52.1505 11.2332L53.1438 12.2266C53.9575 13.0297 55.2045 13.1882 56.1556 12.607C57.1912 12.0046 58.2902 11.5397 59.4103 11.2544C60.5305 10.969 61.2702 9.99683 61.2702 8.84497V7.4395H63.9966V8.83441C63.9966 9.96513 64.7575 10.9585 65.8671 11.2438C67.0083 11.5291 68.1074 11.9835 69.143 12.5859C70.1363 13.1565 71.341 12.998 72.1547 12.1949L73.148 11.2015L75.0819 13.1248L74.0991 14.1076C73.2854 14.9213 73.1375 16.1682 73.7187 17.1299C74.321 18.1655 74.7754 19.2539 75.0819 20.3847C75.3672 21.4837 76.3606 22.2445 77.4913 22.2445H78.9073V24.9604H77.5124C76.3817 24.9604 75.3884 25.7318 75.103 26.8308C74.8071 27.9827 74.3633 29.0711 73.7715 30.0962C73.2009 31.0684 73.3594 32.3153 74.1625 33.1079L75.1559 34.0907L73.2432 36.0245L72.2498 35.0417C71.4467 34.2386 70.1997 34.0907 69.2169 34.6613C68.2025 35.2637 67.1035 35.7181 65.9622 36.0139C64.8526 36.3098 64.0917 37.3137 64.1129 38.4233V39.8288H61.3865V38.4339C61.3865 37.3032 60.615 36.3098 59.516 36.0245C58.3642 35.7286 57.2651 35.2742 56.2507 34.6824C55.8491 34.45 55.4158 34.3337 54.9931 34.3337C54.3591 34.3337 53.725 34.5873 53.2389 35.0734L52.2456 36.0668L50.3117 34.1541L51.3051 33.1607C52.0976 32.3682 52.2562 31.1212 51.6749 30.1384C51.0832 29.1451 50.6288 28.0461 50.3223 26.8837C50.037 25.7846 49.0436 25.0238 47.9129 25.0238H46.4969V22.3079H47.9024L47.8601 22.2974ZM62.6757 33.7736C65.3176 33.7736 67.9489 32.7592 69.9355 30.7302C73.8455 26.7357 73.7715 20.2895 69.7876 16.369C65.7825 12.4591 59.3469 12.5225 55.4264 16.517C51.5164 20.522 51.5798 26.9576 55.5743 30.8676C57.5505 32.8014 60.1078 33.7631 62.6757 33.7631V33.7736ZM57.3814 18.4402C58.8291 16.9608 60.7524 16.2211 62.6757 16.2211C64.599 16.2211 66.4166 16.9185 67.8537 18.3346C70.7704 21.1984 70.8126 25.8903 67.9594 28.8069C65.0956 31.7236 60.3931 31.7764 57.4765 28.9126C54.5599 26.0594 54.5176 21.3569 57.3708 18.4402H57.3814Z" fill="white"/>
</svg>
