<svg width="89" height="100" viewBox="0 0 89 100" fill="none" xmlns="http://www.w3.org/2000/svg">
<path d="M87.5035 29.4469C87.5035 29.4469 87.2042 28.2494 87.1044 27.7504C87.0046 27.2515 86.6054 25.8544 86.5056 25.8544C79.6199 5.79614 57.2665 -2.18724 39.8028 0.507148C26.8299 2.50299 17.2498 8.8897 11.9608 18.7691C10.7633 21.0643 9.86518 23.3596 9.26642 25.8544L8.86725 27.3513C8.86725 27.3513 8.86725 27.451 8.86725 27.5508L8.56788 29.3471C8.16871 32.3409 8.06891 35.4344 8.46808 38.7276C8.46808 38.8274 8.46808 38.8274 8.46808 38.9272C8.46808 39.1267 8.46808 39.5259 8.46808 39.8253C8.46808 41.0228 8.16871 42.2203 7.66975 43.318L0.384913 58.686C-0.213841 59.9833 -0.114048 61.58 0.68429 62.7775C1.48263 63.975 2.77993 64.7733 4.27681 64.7733H8.2685V84.8316C8.2685 87.8254 10.5637 90.1206 13.5575 90.1206L25.1334 90.3202C26.3309 90.3202 27.4286 91.4179 27.4286 92.6154V98.104C27.4286 99.2017 28.3267 100 29.3247 100H71.1376C71.7364 100 72.3351 99.7006 72.7343 99.2017C73.1335 98.7027 73.1335 98.0042 72.9339 97.4054L72.6345 96.7069C69.3413 88.5239 68.8424 81.3389 71.3372 75.6507C72.7343 72.2578 74.7301 70.3617 76.1272 69.0644L76.5264 68.6652C87.6033 57.1891 91.3954 44.1164 87.5035 29.4469ZM73.7322 65.7713L73.4328 66.0706C72.0357 67.4677 69.5409 69.8627 67.8445 73.9542C65.1501 80.2411 65.3497 87.6258 68.3434 96.0083H31.2207V92.4158C31.2207 89.0229 28.5263 86.2287 25.2332 86.2287L13.5575 86.0291C12.6594 86.0291 12.0606 85.3305 12.0606 84.5322V63.6756C12.0606 62.079 10.7633 60.6819 9.16663 60.6819H4.27681C4.07723 60.6819 3.97743 60.5821 3.87764 60.4823C3.77785 60.2827 3.77785 60.1829 3.87764 59.9833L11.1625 44.6153C11.9608 43.0186 12.36 41.3222 12.36 39.5259C12.36 39.027 12.36 38.528 12.2602 38.029C11.9608 35.1351 11.9608 32.3409 12.36 29.8461L12.6594 28.1496L13.0585 26.7525C13.6573 24.5571 14.4556 22.4614 15.4535 20.4656C20.1438 11.6839 28.7259 5.99572 40.5014 4.19946C56.4681 1.70465 76.8258 8.8897 83.0129 26.9521C83.0129 26.9521 83.4121 28.2494 83.5118 28.6486C83.6116 29.0477 83.911 30.2452 83.911 30.2452C87.304 43.6174 83.911 55.5925 73.7322 65.7713Z" fill="white"/>
<path d="M75.329 31.2437C74.83 31.2437 74.331 31.3434 73.8321 31.543L68.1439 23.3601C68.8425 22.4619 69.2416 21.464 69.2416 20.2665C69.2416 17.4723 67.0462 15.2769 64.252 15.2769C62.5556 15.2769 61.0587 16.0752 60.1605 17.3725L49.4828 13.78C49.4828 13.6802 49.4828 13.6802 49.4828 13.5804C49.4828 10.7862 47.2873 8.59082 44.4932 8.59082C41.699 8.59082 39.5036 10.7862 39.5036 13.5804C39.5036 14.0794 39.6033 14.5784 39.8029 15.0773L29.1252 22.3622C28.227 21.6636 27.2291 21.2644 26.0316 21.2644C23.2374 21.2644 21.042 23.4599 21.042 26.254C21.042 29.0482 23.2374 31.2437 26.0316 31.2437C27.7281 31.2437 29.225 30.4453 30.1231 29.148L43.4952 33.7385C43.4952 33.8383 43.4952 33.8383 43.4952 33.938C43.4952 36.7322 45.6907 38.9277 48.4849 38.9277C49.2832 38.9277 50.0815 38.7281 50.7801 38.3289L62.4558 50.5036C62.0566 51.2021 61.7572 52.1002 61.7572 52.9984C61.7572 55.7925 63.9527 57.988 66.7468 57.988C69.541 57.988 71.7365 55.7925 71.7365 52.9984C71.7365 51.6013 71.1377 50.304 70.2396 49.4058L74.5306 41.1231C74.83 41.2229 75.1294 41.2229 75.4288 41.2229C78.2229 41.2229 80.4184 39.0275 80.4184 36.2333C80.3186 33.5389 78.0234 31.2437 75.329 31.2437ZM53.2749 32.9401C53.1751 32.541 53.0753 32.2416 52.8757 31.9422L61.4578 24.4578C62.2562 24.9567 63.1543 25.2561 64.1522 25.2561C64.6512 25.2561 65.1502 25.1563 65.6491 24.9567L71.3373 33.1397C71.0379 33.5389 70.7385 33.938 70.5389 34.437L53.2749 32.9401ZM59.2624 20.0669C59.2624 20.1667 59.2624 20.1667 59.2624 20.2665C59.2624 20.9651 59.462 21.6636 59.7614 22.3622L51.1792 29.8466C50.5805 29.4474 49.7822 29.148 48.9838 29.148L46.8882 18.1709C47.5867 17.7717 48.1855 17.2727 48.6844 16.674L59.2624 20.0669ZM30.9214 26.4536C30.9214 26.3538 30.9214 26.3538 30.9214 26.254C30.9214 25.7551 30.8216 25.2561 30.622 24.7572L41.2998 17.4723C41.9984 18.0711 42.8965 18.4703 43.8944 18.57L45.9901 29.5472C45.2915 29.9464 44.6928 30.4453 44.1938 31.0441L30.9214 26.4536ZM67.645 48.1085C67.3456 48.0088 67.0462 48.0088 66.7468 48.0088C65.9485 48.0088 65.1502 48.2083 64.4516 48.6075L52.7759 36.3331C52.8757 36.1335 52.9755 35.9339 53.0753 35.7343L70.4391 37.2312C70.6387 38.2291 71.1377 39.1272 71.8362 39.8258L67.645 48.1085Z" fill="white"/>
</svg>
