<svg width="106" height="100" viewBox="0 0 106 100" fill="none" xmlns="http://www.w3.org/2000/svg">
<path fill-rule="evenodd" clip-rule="evenodd" d="M45.817 81.8197L52.3502 79.1206C52.692 78.9795 53.0756 78.9795 53.4174 79.1206L59.9475 81.8165L59.3985 74.7757C59.3719 74.406 59.4922 74.0408 59.7334 73.7594L64.3146 68.3833L57.5493 66.7514C57.3497 66.7189 57.1595 66.6437 56.9916 66.5311C56.8238 66.4184 56.6821 66.2709 56.5764 66.0986L52.8801 60.0793L49.1816 66.0922C48.988 66.4081 48.677 66.6345 48.3169 66.7217L41.4466 68.3791L45.9802 73.6979C46.1265 73.8514 46.2364 74.0359 46.3015 74.2378C46.3667 74.4396 46.3854 74.6535 46.3564 74.8636L45.817 81.8229V81.8197ZM100.136 71.9303L99.6058 80.69L105.408 87.2604C105.566 87.4404 105.675 87.6578 105.725 87.892C105.776 88.1261 105.765 88.3692 105.696 88.5983C105.626 88.8273 105.498 89.0347 105.326 89.2008C105.153 89.3669 104.941 89.4861 104.709 89.5473L96.2232 91.7536L91.7617 99.3085C91.6356 99.5226 91.4548 99.6995 91.238 99.8209C91.0211 99.9424 90.776 100.004 90.5275 99.9998C90.279 99.9955 90.036 99.9253 89.8235 99.7964C89.6111 99.6675 89.4366 99.4845 89.3179 99.2661L84.6498 91.9539L76.0904 90.0464C75.8563 89.9945 75.6395 89.8834 75.4606 89.7239C75.2817 89.5643 75.1466 89.3616 75.0683 89.1351C74.99 88.9085 74.971 88.6656 75.0132 88.4296C75.0554 88.1937 75.1573 87.9724 75.3093 87.7871L80.8814 81.0122L80.0495 72.28C80.0287 72.042 80.0688 71.8026 80.1659 71.5843C80.263 71.3661 80.414 71.1761 80.6048 71.0322C80.7955 70.8883 81.0196 70.7953 81.2562 70.7618C81.4927 70.7283 81.7339 70.7555 81.957 70.8409L90.1276 74.0487L98.172 70.5611C98.3918 70.4681 98.6315 70.4325 98.8688 70.4576C99.1061 70.4827 99.3331 70.5677 99.5285 70.7046C99.724 70.8414 99.8815 71.0257 99.9862 71.2401C100.091 71.4545 100.139 71.692 100.127 71.9303H100.136ZM96.77 81.0991L97.1939 74.0423L90.8037 76.8125C90.6261 76.9056 90.4306 76.9595 90.2304 76.9705C90.0302 76.9814 89.83 76.9492 89.6433 76.8761L83.0634 74.2924L83.7332 81.3259C83.7667 81.6954 83.6524 82.0631 83.4152 82.3485L78.9304 87.8104L85.8261 89.347C86.0061 89.3869 86.1764 89.4619 86.3274 89.5677C86.4783 89.6735 86.6069 89.8081 86.7057 89.9637L90.507 95.9163L94.1037 89.8239C94.2936 89.5073 94.6011 89.2787 94.9589 89.188L101.798 87.4108L97.1769 82.1684C97.0382 82.0285 96.9305 81.8611 96.8609 81.6768C96.7914 81.4925 96.7615 81.2957 96.7732 81.0991H96.77ZM7.67402 70.6003L15.6294 74.0487L23.8 70.8409C24.0299 70.7507 24.2796 70.7228 24.5237 70.7599C24.7679 70.7971 24.998 70.898 25.1907 71.0524C25.3834 71.2069 25.532 71.4094 25.6214 71.6397C25.7109 71.8699 25.738 72.1196 25.7001 72.3637L24.8767 81.0143L30.4477 87.7892C30.6006 87.9773 30.7024 88.2018 30.7431 88.4408C30.7838 88.6798 30.762 88.9253 30.6799 89.1535C30.5979 89.3816 30.4582 89.5847 30.2745 89.743C30.0909 89.9013 29.8694 90.0095 29.6317 90.057L21.1082 91.956L16.3882 99.3466C16.2593 99.5486 16.0808 99.7143 15.8697 99.8277C15.6586 99.9412 15.422 99.9987 15.1824 99.9948C14.9428 99.9908 14.7082 99.9256 14.5009 99.8053C14.2937 99.6849 14.1207 99.5135 13.9985 99.3074L9.53703 91.7536L1.05175 89.5494C0.815459 89.4883 0.599197 89.3666 0.424322 89.1963C0.249447 89.0261 0.122008 88.8131 0.0545905 88.5786C-0.012827 88.344 -0.0178906 88.0959 0.0398996 87.8588C0.0976898 87.6217 0.216335 87.4037 0.384117 87.2265L6.15436 80.69L5.6245 71.9303C5.61027 71.6825 5.66184 71.4355 5.77397 71.2141C5.8861 70.9928 6.0548 70.805 6.26295 70.67C6.47109 70.5349 6.71127 70.4573 6.9591 70.4451C7.20693 70.4328 7.45358 70.4864 7.67402 70.6003ZM15.0519 76.8527L8.56737 74.0423L8.99127 81.0991C9.0133 81.4694 8.88753 81.8334 8.64155 82.1111L3.96601 87.4098L10.7335 89.1679C10.9262 89.2068 11.1086 89.2859 11.2687 89.4C11.4289 89.5142 11.5631 89.6607 11.6629 89.8302L15.2596 95.9131L19.0471 89.9786C19.1457 89.8179 19.2757 89.6787 19.4294 89.5694C19.5831 89.4602 19.7573 89.3831 19.9415 89.3427L26.8319 87.8104L22.3598 82.3708C22.2368 82.228 22.1439 82.0619 22.0867 81.8823C22.0295 81.7027 22.0092 81.5135 22.027 81.3259L22.6968 74.2924L16.118 76.8761C15.7743 77.0116 15.3908 77.0051 15.0519 76.858V76.8527ZM43.4622 75.811C34.3611 73.5142 26.4129 67.9708 21.1129 60.2238C15.8129 52.4768 13.5265 43.0601 14.6837 33.7452C15.841 24.4303 20.3621 15.8593 27.3966 9.64462C34.4311 3.42996 43.4941 0 52.8806 0C62.2671 0 71.3301 3.42996 78.3646 9.64462C85.3992 15.8593 89.9203 24.4303 91.0775 33.7452C92.2348 43.0601 89.9483 52.4768 84.6483 60.2238C79.3484 67.9708 71.4002 73.5142 62.299 75.811L62.9253 83.8894C62.9441 84.1367 62.8971 84.3846 62.789 84.6078C62.681 84.8311 62.5158 85.0218 62.3102 85.1605C62.1046 85.2993 61.866 85.3811 61.6185 85.3978C61.371 85.4144 61.1235 85.3653 60.9012 85.2554L52.8801 81.9395L44.771 85.2871C44.5501 85.3759 44.3102 85.4072 44.0739 85.3782C43.8375 85.3492 43.6124 85.2607 43.4195 85.1211C43.2266 84.9816 43.0722 84.7954 42.9707 84.58C42.8692 84.3646 42.8239 84.127 42.8391 83.8894L43.4654 75.8163L43.4622 75.811ZM64.819 72.1157L67.9283 68.4639C68.0838 68.2815 68.1901 68.0623 68.237 67.8272C68.2838 67.5921 68.2697 67.349 68.196 67.1209C68.1223 66.8928 67.9914 66.6873 67.8158 66.5242C67.6402 66.361 67.4257 66.2455 67.1928 66.1886L58.6705 64.1328L54.0892 56.6744C53.9656 56.4665 53.7904 56.294 53.5806 56.1735C53.3708 56.0531 53.1335 55.9887 52.8916 55.9867C52.6497 55.9847 52.4114 56.045 52.1996 56.162C51.9878 56.2789 51.8098 56.4484 51.6826 56.6542L47.0887 64.1317L38.6214 66.1738C38.3814 66.2221 38.1581 66.3322 37.9737 66.4933C37.7894 66.6544 37.6503 66.8609 37.5703 67.0923C37.4903 67.3237 37.4722 67.572 37.5177 67.8126C37.5632 68.0532 37.6708 68.2777 37.8298 68.4639L40.9422 72.1157C36.2711 70.4566 31.9971 67.8421 28.3929 64.439C33.0959 55.657 42.6855 50.4018 52.8801 50.4018C63.0747 50.4018 72.6653 55.6581 77.3684 64.4401C73.7638 67.8424 69.4898 70.4565 64.819 72.1157ZM79.4169 62.3439C74.0748 53.0956 63.7869 47.5861 52.8801 47.5861C41.9733 47.5861 31.6907 53.0967 26.3444 62.3439C21.73 57.2149 18.701 50.8585 17.6239 44.0438C16.5467 37.2292 17.4676 30.2484 20.2751 23.9463C23.0826 17.6441 27.6563 12.2906 33.4429 8.53364C39.2295 4.77665 45.9809 2.77718 52.8801 2.77718C59.7793 2.77718 66.5307 4.77665 72.3173 8.53364C78.1038 12.2906 82.6776 17.6441 85.4851 23.9463C88.2926 30.2484 89.2135 37.2292 88.1363 44.0438C87.0592 50.8585 84.0312 57.2149 79.4169 62.3439ZM52.8801 14.6093C49.9969 14.6093 47.1785 15.4643 44.7812 17.0661C42.3839 18.6679 40.5154 20.9446 39.4121 23.6084C38.3087 26.2721 38.02 29.2032 38.5825 32.031C39.145 34.8588 40.5334 37.4563 42.5721 39.495C44.6108 41.5337 47.2083 42.9221 50.0361 43.4846C52.8639 44.0471 55.795 43.7584 58.4587 42.655C61.1225 41.5517 63.3992 39.6832 65.001 37.2859C66.6028 34.8886 67.4578 32.0702 67.4578 29.187C67.4578 25.3208 65.9219 21.6129 63.1881 18.879C60.4542 16.1452 56.7463 14.6093 52.8801 14.6093ZM61.1969 20.8692C59.5517 19.2244 57.4557 18.1044 55.174 17.6508C52.8923 17.1972 50.5273 17.4304 48.3781 18.3208C46.2288 19.2112 44.3919 20.7189 43.0995 22.6532C41.8071 24.5876 41.1173 26.8617 41.1173 29.1881C41.1173 31.5144 41.8071 33.7886 43.0995 35.7229C44.3919 37.6573 46.2288 39.165 48.3781 40.0554C50.5273 40.9458 52.8923 41.1789 55.174 40.7253C57.4557 40.2717 59.5517 39.1517 61.1969 37.507C62.2896 36.4147 63.1564 35.1179 63.7479 33.6905C64.3393 32.2632 64.6438 30.7333 64.6439 29.1883C64.644 27.6433 64.3397 26.1134 63.7485 24.6859C63.1572 23.2585 62.2895 21.9616 61.1969 20.8692Z" fill="white"/>
</svg>
