<svg width="27" height="27" viewBox="0 0 27 27" fill="none" xmlns="http://www.w3.org/2000/svg">
<path d="M3.75 8.625H23.25C24.147 8.625 24.875 7.897 24.875 7C24.875 6.103 24.147 5.375 23.25 5.375H3.75C2.853 5.375 2.125 6.103 2.125 7C2.125 7.897 2.853 8.625 3.75 8.625ZM23.25 11.875H3.75C2.853 11.875 2.125 12.603 2.125 13.5C2.125 14.397 2.853 15.125 3.75 15.125H23.25C24.147 15.125 24.875 14.397 24.875 13.5C24.875 12.603 24.147 11.875 23.25 11.875ZM23.25 18.375H3.75C2.853 18.375 2.125 19.103 2.125 20C2.125 20.897 2.853 21.625 3.75 21.625H23.25C24.147 21.625 24.875 20.897 24.875 20C24.875 19.103 24.147 18.375 23.25 18.375Z" fill="white"/>
</svg>
