<svg width="26" height="16" viewBox="0 0 26 16" fill="none" xmlns="http://www.w3.org/2000/svg">
<path fill-rule="evenodd" clip-rule="evenodd" d="M0.636718 8C0.636718 7.76429 0.729755 7.53822 0.895361 7.37155C1.06097 7.20487 1.28558 7.11124 1.51978 7.11124L22.3476 7.11124L16.7897 1.51913C16.6238 1.35225 16.5307 1.1259 16.5307 0.889887C16.5307 0.653874 16.6238 0.427528 16.7897 0.260641C16.9555 0.093755 17.1804 2.30528e-07 17.4149 2.20278e-07C17.6494 2.10028e-07 17.8743 0.093755 18.0401 0.260641L25.1046 7.37075C25.1868 7.45331 25.252 7.55139 25.2966 7.65937C25.3411 7.76734 25.364 7.8831 25.364 8C25.364 8.1169 25.3411 8.23266 25.2966 8.34063C25.252 8.44861 25.1868 8.54669 25.1046 8.62924L18.0401 15.7394C17.8743 15.9062 17.6494 16 17.4149 16C17.1804 16 16.9555 15.9062 16.7897 15.7394C16.6238 15.5725 16.5307 15.3461 16.5307 15.1101C16.5307 14.8741 16.6238 14.6478 16.7897 14.4809L22.3476 8.88876L1.51978 8.88876C1.28558 8.88876 1.06097 8.79513 0.895361 8.62845C0.729755 8.46177 0.636718 8.23572 0.636718 8Z" fill="#D4D4D4"/>
</svg>
