<svg width="40" height="40" viewBox="0 0 40 40" fill="none" xmlns="http://www.w3.org/2000/svg">
<g clip-path="url(#clip0_151_3088)">
<path d="M0.800049 31.2936H24V39.1064L28.8 36.2264L33.6 39.1064V31.2936H39.2001V0.893555H0.800049V31.2936ZM32.212 25.8648C32.14 25.9376 32.0632 26.0048 31.9872 26.0728C31.944 26.1112 31.9041 26.152 31.8593 26.1888C31.8097 26.2304 31.7568 26.2656 31.7056 26.3048C31.0312 26.8208 30.2185 27.164 29.3313 27.2624C29.3169 27.264 29.3025 27.2672 29.2873 27.2688C29.1264 27.2848 28.9632 27.2936 28.7985 27.2936C28.6336 27.2936 28.4704 27.2848 28.3097 27.2688C28.2952 27.2672 28.2808 27.264 28.2656 27.2624C27.3785 27.164 26.5664 26.8208 25.8912 26.3048C25.84 26.2656 25.7873 26.2296 25.7376 26.1888C25.6936 26.152 25.6528 26.1112 25.6096 26.0728C25.5336 26.0048 25.4576 25.9376 25.3848 25.8648C24.528 24.9976 23.9968 23.8072 23.9968 22.4936C23.9968 19.8464 26.1496 17.6936 28.7968 17.6936C31.444 17.6936 33.5968 19.8464 33.5968 22.4936C33.6 23.8064 33.0696 24.9968 32.212 25.8648ZM32 36.2808L28.8 34.3608L25.6 36.2808V31.2936V28.0376C25.6272 28.0536 25.6576 28.064 25.6856 28.0792C25.8976 28.1976 26.116 28.3064 26.3416 28.4008C26.3512 28.4048 26.3616 28.408 26.372 28.412C27.1216 28.7208 27.9408 28.8936 28.8008 28.8936C29.6608 28.8936 30.48 28.7208 31.2296 28.412C31.2392 28.408 31.2496 28.4048 31.26 28.4008C31.4856 28.3064 31.7041 28.1984 31.916 28.0792C31.944 28.064 31.9744 28.0536 32.0016 28.0376V31.2936V36.2808H32ZM2.40005 2.49355H37.6V29.6936H33.6V26.7128C34.5928 25.5848 35.2001 24.1104 35.2001 22.4936C35.2001 18.9648 32.3288 16.0936 28.8 16.0936C25.2712 16.0936 22.4 18.9648 22.4 22.4936C22.4 24.1104 23.0072 25.5848 24 26.7128V29.6936H2.40005V2.49355Z" fill="#149AC5"/>
<path d="M30.4001 5.69336H9.6001V7.29336H30.4001V5.69336Z" fill="#149AC5"/>
<path d="M26.4001 10.4932H13.6001V12.0932H26.4001V10.4932Z" fill="#149AC5"/>
<path d="M14.4001 24.8936H5.6001V26.4936H14.4001V24.8936Z" fill="#149AC5"/>
</g>
<defs>
<clipPath id="clip0_151_3088">
<rect width="40" height="40" fill="white"/>
</clipPath>
</defs>
</svg>
