<svg width="40" height="40" viewBox="0 0 40 40" fill="none" xmlns="http://www.w3.org/2000/svg">
<path d="M5.79999 7.68791L8.63749 4.85041C9.02003 4.4684 9.48064 4.17362 9.98776 3.98627C10.4949 3.79893 11.0365 3.72345 11.5755 3.765C12.1145 3.80656 12.6382 3.96416 13.1106 4.22702C13.583 4.48988 13.993 4.85178 14.3125 5.28791L17.075 9.03791C17.4197 9.51078 17.649 10.0578 17.7446 10.6351C17.8401 11.2125 17.7991 11.8042 17.625 12.3629L17.4625 12.8379C17.125 13.9504 16.6875 15.3379 16.4125 16.2629C16.3269 16.5525 16.3491 16.8634 16.475 17.1379C17.1525 18.509 18.0286 19.7726 19.075 20.8879C19.1921 21.0041 19.2851 21.1424 19.3486 21.2947C19.4121 21.447 19.4447 21.6104 19.4447 21.7754C19.4447 21.9404 19.4121 22.1038 19.3486 22.2561C19.2851 22.4085 19.1921 22.5467 19.075 22.6629C18.8408 22.8957 18.524 23.0264 18.1937 23.0264C17.8635 23.0264 17.5467 22.8957 17.3125 22.6629C16.0705 21.3652 15.0336 19.8857 14.2375 18.2754C13.8197 17.4324 13.7436 16.4607 14.025 15.5629C14.2875 14.6629 14.7375 13.2379 15.0875 12.1254L15.2375 11.6379C15.2846 11.4506 15.2877 11.2549 15.2465 11.0663C15.2053 10.8776 15.1209 10.701 15 10.5504L12.2375 6.80041C12.1313 6.65543 11.9951 6.53505 11.8382 6.44749C11.6812 6.35992 11.5072 6.30722 11.3281 6.29299C11.149 6.27875 10.9688 6.30331 10.8001 6.36499C10.6313 6.42667 10.4777 6.52402 10.35 6.65041L9.51249 7.48791L12.0125 11.3629C12.1336 11.5516 12.2016 11.7694 12.2096 11.9935C12.2176 12.2176 12.1651 12.4396 12.0578 12.6365C11.9504 12.8333 11.7921 12.9976 11.5994 13.1123C11.4067 13.2269 11.1867 13.2875 10.9625 13.2879C10.7545 13.2889 10.5495 13.238 10.3662 13.1398C10.1828 13.0415 10.0269 12.8991 9.91249 12.7254L7.69999 9.30041L7.49999 9.48791C7.20967 9.80376 6.98503 10.1742 6.83911 10.5776C6.69319 10.981 6.6289 11.4094 6.64999 11.8379C6.64999 14.0379 8.13749 18.0879 15.0625 24.8879C22.325 32.0129 28.0875 34.8879 30.475 32.4754L33.3875 29.6004C33.5144 29.4734 33.6124 29.3206 33.675 29.1524C33.7375 28.9842 33.7631 28.8044 33.75 28.6254C33.7356 28.4453 33.6823 28.2705 33.5938 28.1129C33.5054 27.9554 33.3838 27.8189 33.2375 27.7129L29.4875 24.9504C29.3312 24.8361 29.1505 24.7596 28.9596 24.7271C28.7687 24.6946 28.5728 24.7068 28.3875 24.7629L26.025 25.5004L28.6875 27.3879C28.8227 27.4826 28.9378 27.6032 29.0261 27.7427C29.1144 27.8821 29.1743 28.0377 29.2022 28.2004C29.2301 28.3631 29.2255 28.5297 29.1886 28.6906C29.1518 28.8515 29.0834 29.0036 28.9875 29.1379C28.8712 29.3012 28.7174 29.4341 28.539 29.5255C28.3607 29.6168 28.1629 29.664 27.9625 29.6629C27.7076 29.6623 27.459 29.5838 27.25 29.4379L22.5 26.1004C22.3638 26.0066 22.2476 25.8868 22.1581 25.7478C22.0685 25.6088 22.0075 25.4534 21.9784 25.2906C21.9493 25.1279 21.9529 24.961 21.9887 24.7996C22.0246 24.6382 22.0922 24.4855 22.1875 24.3504C22.353 24.1318 22.5858 23.9737 22.85 23.9004L27.6 22.3754C28.1587 22.2013 28.7504 22.1603 29.3278 22.2558C29.9051 22.3513 30.4521 22.5806 30.925 22.9254L34.675 25.6879C35.1111 26.0074 35.473 26.4174 35.7359 26.8898C35.9987 27.3622 36.1563 27.8858 36.1979 28.4249C36.2394 28.9639 36.164 29.5055 35.9766 30.0126C35.7893 30.5198 35.4945 30.9804 35.1125 31.3629L32.275 34.2129C31.7638 34.7236 31.155 35.1261 30.485 35.3967C29.815 35.6673 29.0975 35.8003 28.375 35.7879C25.225 35.7879 20.475 33.6004 13.375 26.6379C7.32499 20.7004 4.23749 15.7129 4.21249 11.8129C4.18193 11.0534 4.30698 10.2957 4.57998 9.58636C4.85298 8.87699 5.26815 8.23094 5.79999 7.68791Z" fill="#149AC5"/>
</svg>
