<svg width="40" height="40" viewBox="0 0 40 40" fill="none" xmlns="http://www.w3.org/2000/svg">
<path d="M2.72561 0.486328H30.4118C30.9504 0.486328 31.3874 0.922867 31.3874 1.46145V5.54479H37.2745C37.8131 5.54479 38.2497 5.98133 38.2497 6.51992V38.538C38.2497 39.0766 37.8131 39.5131 37.2745 39.5131H9.58834C9.04976 39.5131 8.61275 39.0766 8.61275 38.538V34.4546H2.72561C2.18703 34.4546 1.75049 34.0181 1.75049 33.4795V1.46145C1.75049 0.922867 2.18703 0.486328 2.72561 0.486328ZM31.3874 7.49552V33.4795C31.3874 34.0181 30.9504 34.4546 30.4118 34.4546H10.5639V37.5624H36.2989V7.49552H31.3874ZM13.6391 15.8431C13.3882 17.0961 11.4833 16.7153 11.7337 15.4624C11.9855 14.2094 12.7131 13.1082 13.76 12.3811C13.7118 12.3187 13.6655 12.2545 13.6216 12.1888C13.2413 11.6214 13.0192 10.9425 13.0192 10.2159C13.0192 8.25568 14.6085 6.66638 16.5687 6.66638C18.5289 6.66638 20.1182 8.25568 20.1182 10.2159C20.1182 11.002 19.8569 11.7598 19.3774 12.3811C20.4248 13.1077 21.1524 14.2094 21.4037 15.4624C21.6541 16.7153 19.7492 17.0961 19.4988 15.8431C19.2928 14.8189 18.5501 13.9685 17.566 13.6212C17.2438 13.7171 16.9051 13.7658 16.5687 13.7658C16.2333 13.7658 15.8936 13.7171 15.5714 13.6212C14.5873 13.9685 13.8446 14.8184 13.6391 15.8431ZM16.5687 11.8151C17.4631 11.8151 18.1675 11.1026 18.1675 10.2159C18.1675 9.33285 17.4517 8.6171 16.5687 8.6171C15.6857 8.6171 14.97 9.33285 14.97 10.2159C14.97 11.1102 15.6829 11.8151 16.5687 11.8151ZM9.41212 21.2115C8.12896 21.2115 8.12896 19.2608 9.41212 19.2608H23.7258C25.0089 19.2608 25.0089 21.2115 23.7258 21.2115H9.41212ZM9.41212 28.2746C8.12896 28.2746 8.12896 26.3239 9.41212 26.3239H23.7258C25.0089 26.3239 25.0089 28.2746 23.7258 28.2746H9.41212ZM9.41212 24.7431C8.12896 24.7431 8.12896 22.7923 9.41212 22.7923H23.7258C25.0089 22.7923 25.0089 24.7431 23.7258 24.7431H9.41212ZM29.4362 2.43705H3.70121V32.5039H29.4362V2.43705Z" fill="#149AC5"/>
</svg>
