<svg width="40" height="40" viewBox="0 0 40 40" fill="none" xmlns="http://www.w3.org/2000/svg">
<path d="M37.4795 34.9679C37.4795 37.4917 35.4187 39.5525 32.8949 39.5525H7.10511C4.58131 39.5525 2.52051 37.4917 2.52051 34.9679V14.2276C2.52051 13.8865 2.69531 13.586 2.96035 13.4112L8.42701 9.1696V3.04482C8.42701 2.50529 8.86449 2.06734 9.4045 2.06734H17.5797L19.4043 0.651419C19.7685 0.370315 20.2688 0.38685 20.6118 0.664175L22.4203 2.06734H30.5955C31.1355 2.06734 31.5735 2.50529 31.5735 3.04482V9.1696L37.0841 13.4457C37.3316 13.6299 37.4767 13.921 37.4767 14.2276L37.4795 34.9679ZM15.4461 8.93715C14.1606 8.93715 14.1606 6.98218 15.4461 6.98218H24.5539C25.8394 6.98218 25.8394 8.93715 24.5539 8.93715H15.4461ZM15.4461 18.2249C14.1606 18.2249 14.1606 16.27 15.4461 16.27H24.5539C25.8394 16.27 25.8394 18.2249 24.5539 18.2249H15.4461ZM15.4461 13.5813C14.1606 13.5813 14.1606 11.6258 15.4461 11.6258H24.5539C25.8394 11.6258 25.8394 13.5813 24.5539 13.5813H15.4461ZM8.42701 11.6367L5.08777 14.2276L8.42701 16.8185V11.6367ZM10.382 18.336L20 25.7992L29.618 18.336V4.02278H10.382V18.336ZM31.5735 16.8185L34.9123 14.2276L31.5735 11.6367V16.8185ZM4.47548 16.2199V34.9679C4.47548 36.4122 5.66085 37.5975 7.10511 37.5975H13.2809L18.7523 27.2982C13.9934 23.6056 9.23442 19.9125 4.47548 16.2199ZM21.2477 27.2982L26.7191 37.5975H32.8949C34.3392 37.5975 35.5245 36.4122 35.5245 34.9679V16.2199C30.7656 19.9125 26.0067 23.6056 21.2477 27.2982ZM24.5062 37.5975L20 29.1157L15.4938 37.5975H24.5062Z" fill="#149AC5"/>
</svg>
