<svg width="40" height="40" viewBox="0 0 40 40" fill="none" xmlns="http://www.w3.org/2000/svg">
<path d="M4 5.5998V39.1998H31.2V34.3998H36V0.799805H8.8V5.5998H4ZM29.6 37.5998H5.6V7.1998H8.8H24V12.7998H29.6V34.3998V37.5998ZM25.6 8.331L28.4688 11.1998H25.6V8.331ZM10.4 2.3998H34.4V32.7998H31.2V11.6686L25.1312 5.5998H10.4V2.3998Z" fill="#149AC5"/>
<path d="M26.4 16H8.80005V17.6H26.4V16Z" fill="#149AC5"/>
<path d="M26.4 20.7998H8.80005V22.3998H26.4V20.7998Z" fill="#149AC5"/>
<path d="M26.4 25.5996H8.80005V27.1996H26.4V25.5996Z" fill="#149AC5"/>
<path d="M16 32H8.80005V33.6H16V32Z" fill="#149AC5"/>
<path d="M26.4 32H19.2V33.6H26.4V32Z" fill="#149AC5"/>
<path d="M20.7999 11.2002H14.3999V12.8002H20.7999V11.2002Z" fill="#149AC5"/>
</svg>
