<svg width="50" height="50" viewBox="0 0 50 50" fill="none" xmlns="http://www.w3.org/2000/svg">
<path d="M25 43.5156L24.2969 42.6563C23.8281 42.0313 11.875 28.0469 11.875 19.6875C11.875 12.4219 17.8125 6.5625 25 6.5625C32.1875 6.5625 38.125 12.5 38.125 19.6875C38.125 28.0469 26.1719 42.1094 25.7031 42.6563L25 43.5156ZM25 8.35939C18.75 8.35939 13.75 13.4375 13.75 19.6094C13.75 26.1719 22.4219 37.3438 25 40.5469C27.5781 37.3438 36.25 26.25 36.25 19.6094C36.25 13.4375 31.25 8.35939 25 8.35939Z" fill="#149AC5"/>
<path d="M25 24.6875C22.2656 24.6875 20 22.4219 20 19.6875C20 16.9531 22.2656 14.6875 25 14.6875C27.7344 14.6875 30 16.9531 30 19.6875C30 22.4219 27.7344 24.6875 25 24.6875ZM25 16.5625C23.2812 16.5625 21.875 17.9688 21.875 19.6875C21.875 21.4063 23.2812 22.8125 25 22.8125C26.7187 22.8125 28.125 21.4063 28.125 19.6875C28.125 17.9688 26.7187 16.5625 25 16.5625Z" fill="#149AC5"/>
</svg>
