<svg width="40" height="40" viewBox="0 0 40 40" fill="none" xmlns="http://www.w3.org/2000/svg">
<path fill-rule="evenodd" clip-rule="evenodd" d="M38.8559 18.2455L31.16 34.7497C30.3867 36.4072 28.4175 37.1247 26.76 36.3513L22.2409 34.2438C21.9117 34.1322 21.6717 33.8305 21.6717 33.4638C21.6717 33.003 22.045 32.6305 22.505 32.6305C22.6475 32.6305 22.775 32.6755 22.8925 32.7388L22.9 32.7247L27.46 34.8505C28.2884 35.2372 29.2742 34.8788 29.66 34.0497L37.3559 17.5455C37.7425 16.7163 37.3834 15.7322 36.555 15.3455L30.8392 12.6797C30.8392 12.6797 29.98 12.383 29.98 11.7447C29.98 11.2847 30.3525 10.9113 30.8134 10.9113C30.9609 10.9113 31.0925 10.9605 31.2125 11.0272L37.255 13.8447C38.9109 14.618 39.6284 16.588 38.8559 18.2455ZM24.1717 29.9997H4.17171C2.33088 29.9997 0.838379 28.5072 0.838379 26.6663V6.66634C0.838379 4.82551 2.33088 3.33301 4.17171 3.33301H24.1717C26.0125 3.33301 27.505 4.82551 27.505 6.66634V26.6663C27.505 28.5072 26.0125 29.9997 24.1717 29.9997ZM15.005 21.6663V20.833L15.97 20.443C16.4534 20.0547 17.6742 18.9038 17.6742 18.9038L17.7075 18.7405C17.9617 17.4813 18.32 15.4063 18.32 14.7372C18.32 12.0372 17.0409 10.8322 14.1709 10.8322C11.3009 10.8322 10.0217 12.0363 10.0217 14.7372C10.0217 15.4638 10.3975 17.5763 10.6342 18.738L10.6675 18.9422C10.94 19.2163 11.7009 19.9463 12.3792 20.4155L13.3384 20.833V21.6663C13.3317 21.5988 13.3384 23.333 13.3384 23.333C13.3384 24.6805 12.4175 25.0697 11.155 25.0697H11.1525C8.32088 25.1805 7.88004 26.1138 7.78088 26.2222C7.69171 26.3547 7.59421 28.0397 7.49838 28.333H20.8467C20.7525 28.0405 20.6592 26.3638 20.5575 26.2122C20.5184 26.1655 20.1467 25.1963 17.255 25.0713C15.9267 25.0713 15.005 24.6813 15.005 23.333C15.005 23.333 15.02 21.5488 15.005 21.6663ZM25.8384 6.66634C25.8384 5.74634 25.0917 4.99967 24.1717 4.99967H4.17171C3.25171 4.99967 2.50505 5.74634 2.50505 6.66634V26.6663C2.50505 27.5863 3.25171 28.333 4.17171 28.333H5.67588C5.96671 27.7963 6.12005 25.7097 6.41838 25.2613C6.41838 25.2613 6.93755 23.563 11.0259 23.4038C11.4425 23.4038 11.6509 23.143 11.6509 22.743C11.6509 22.4205 11.6509 22.1655 11.6509 22.1655C11.6509 22.0847 11.6375 22.013 11.6334 21.9347C11.27 21.6455 11.1842 21.5355 10.5542 21.0105C10.5542 21.0105 9.15921 20.0972 9.00338 19.0713C9.00338 19.0713 8.35755 15.9047 8.35755 14.738C8.35755 11.863 9.64088 9.16634 14.1734 9.16634C18.6442 9.16634 19.9892 11.8622 19.9892 14.738C19.9892 15.8763 19.3434 19.0713 19.3434 19.0713C19.2134 20.043 17.7925 21.0105 17.7925 21.0105C17.2275 21.5347 16.9717 21.7555 16.6475 21.9672C16.645 22.0347 16.6325 22.0963 16.6325 22.1655C16.6325 22.1655 16.6325 22.4213 16.6325 22.743C16.6325 23.1422 16.8409 23.4038 17.2575 23.4038C21.4075 23.5822 21.9275 25.2613 21.9275 25.2613C22.225 25.7088 22.3792 27.7963 22.6709 28.333H24.1742C25.0942 28.333 25.8409 27.5863 25.8409 26.6663V6.66634H25.8384Z" fill="#149AC5"/>
</svg>
