<svg width="40" height="40" viewBox="0 0 40 40" fill="none" xmlns="http://www.w3.org/2000/svg">
<path d="M33.5339 29.2193L27.9088 7.89166C27.752 7.29729 27.3732 6.79948 26.842 6.4901C26.3108 6.18057 25.6907 6.09674 25.0966 6.2533L24.7148 6.35401L24.4471 5.32127C24.2623 4.62088 23.9224 4.15252 23.4367 3.9294C22.9601 3.71041 22.4008 3.75338 21.775 4.05682L9.02863 10.2166C8.05597 10.6882 7.55004 11.7892 7.82574 12.8343L13.4515 34.1649H13.4516L13.5381 34.4932C13.6949 35.0874 14.0738 35.5853 14.6048 35.8946C14.9613 36.1023 15.3577 36.2085 15.7595 36.2085C15.9564 36.2085 16.1547 36.183 16.3503 36.1315L31.8955 32.0316C33.1225 31.7078 33.8575 30.4463 33.5339 29.2193ZM22.2346 5.00604C22.3981 4.9269 22.6079 4.84784 22.7946 4.84784C22.8667 4.84784 22.9353 4.85956 22.9964 4.88776C23.2275 4.99377 23.3583 5.32838 23.4276 5.59112L23.695 6.62299L16.4666 8.5294L13.1145 9.41346L22.2346 5.00604ZM31.6265 31.0116L16.0813 35.1115C15.7593 35.1966 15.4236 35.1509 15.1358 34.9833C14.8482 34.8156 14.6428 34.546 14.558 34.2239L14.4715 33.8958L8.93293 12.8964C8.848 12.5743 8.89347 12.2385 9.06121 11.9507C9.22886 11.6631 9.49855 11.4578 9.8205 11.3729L25.3657 7.27299C25.4715 7.24502 25.5789 7.2312 25.6857 7.2312C25.9033 7.2312 26.118 7.28877 26.3112 7.40127C26.5989 7.56885 26.8042 7.83862 26.889 8.16057L32.514 29.4882C32.6893 30.1529 32.2912 30.8363 31.6265 31.0116Z" fill="#149AC5"/>
<path d="M19.9633 24.1074C20.473 24.1074 20.986 24.0391 21.491 23.901C21.5936 23.8731 21.6945 23.8419 21.7941 23.8088C21.8107 23.8032 21.827 23.7968 21.8435 23.791C21.929 23.7617 22.0135 23.7309 22.0968 23.6979C22.1064 23.6942 22.1157 23.6899 22.1252 23.6862C22.2164 23.6495 22.3062 23.6107 22.3946 23.5697C22.3966 23.5688 22.3986 23.5678 22.4005 23.5669C22.5947 23.4767 22.7819 23.3764 22.9621 23.2668C22.9624 23.2665 22.9629 23.2663 22.9633 23.266C24.1718 22.5308 25.0537 21.3792 25.4677 20.0589C25.4751 20.0357 25.4825 20.0125 25.4896 19.9892C25.5041 19.9407 25.5178 19.8921 25.531 19.8432C25.5392 19.813 25.547 19.7829 25.5547 19.7526C25.5666 19.7057 25.5785 19.6589 25.5892 19.6116C25.5975 19.5749 25.6047 19.5379 25.6124 19.501C25.6273 19.429 25.6408 19.3567 25.653 19.2842C25.66 19.2421 25.6671 19.2001 25.6732 19.1578C25.679 19.1175 25.6842 19.0772 25.6891 19.0367C25.6945 18.9921 25.6994 18.9472 25.7038 18.9024C25.7074 18.865 25.7114 18.8277 25.7143 18.7901C25.7198 18.7202 25.724 18.6502 25.7269 18.58C25.7282 18.549 25.7288 18.518 25.7296 18.487C25.7312 18.425 25.732 18.3628 25.7315 18.3006C25.7313 18.2685 25.7304 18.2364 25.7297 18.2042C25.7283 18.1476 25.726 18.0909 25.723 18.034C25.7214 18.0043 25.72 17.9746 25.7179 17.9449C25.7121 17.861 25.7049 17.777 25.6953 17.6928C25.6942 17.6842 25.6928 17.6754 25.6918 17.6668C25.6825 17.589 25.6714 17.5112 25.6589 17.4333C25.6546 17.4063 25.6496 17.3793 25.6449 17.3523C25.6339 17.2894 25.6217 17.2267 25.6085 17.1638C25.6031 17.1378 25.5977 17.1117 25.5919 17.0857C25.5725 16.9993 25.5517 16.9129 25.5281 16.8267C25.5046 16.7406 25.4786 16.6557 25.4515 16.5717C25.4434 16.5467 25.4348 16.5219 25.4264 16.4971C25.4056 16.4353 25.3837 16.3742 25.361 16.3136C25.3518 16.2892 25.3428 16.2648 25.3333 16.2406C25.3017 16.16 25.269 16.08 25.234 16.0015C25.2315 15.9957 25.2286 15.9901 25.226 15.9844C25.1931 15.9114 25.1589 15.8396 25.1233 15.7684C25.1108 15.7435 25.098 15.7189 25.0852 15.6942C25.0573 15.6403 25.0285 15.5871 24.9989 15.5342C24.9855 15.5101 24.9722 15.486 24.9584 15.4622C24.9169 15.3904 24.8743 15.3194 24.8299 15.2499C24.8224 15.2381 24.8142 15.2266 24.8066 15.2149C24.7685 15.156 24.7293 15.098 24.6891 15.0407C24.6715 15.0158 24.6537 14.9911 24.6356 14.9665C24.6029 14.9214 24.5695 14.8769 24.5354 14.8328C24.5171 14.8089 24.4989 14.785 24.4801 14.7614C24.4309 14.6998 24.3809 14.639 24.3294 14.5796C24.3149 14.563 24.2999 14.547 24.2853 14.5305C24.2444 14.4843 24.2029 14.4388 24.1606 14.3941C24.1379 14.3702 24.1149 14.3467 24.0919 14.3232C24.0554 14.2859 24.0184 14.2492 23.9809 14.2131C23.9578 14.1908 23.935 14.1684 23.9116 14.1464C23.8549 14.0935 23.7975 14.0414 23.7389 13.9908C23.6967 13.941 23.6465 13.8993 23.5901 13.8683C23.5245 13.8155 23.4578 13.7642 23.39 13.7143C23.3877 13.7127 23.3853 13.7109 23.383 13.7092C23.3164 13.6603 23.2489 13.6131 23.1804 13.5671C23.1771 13.5649 23.1737 13.5626 23.1703 13.5603C23.1019 13.5146 23.0325 13.4705 22.9622 13.4278C22.9594 13.426 22.9566 13.4243 22.9538 13.4227C22.8822 13.3793 22.8097 13.3375 22.7364 13.2973C22.736 13.2971 22.7357 13.297 22.7354 13.2967C21.8338 12.8031 20.801 12.5486 19.7396 12.5916H19.7393C19.7349 12.5918 19.7306 12.5921 19.7262 12.5921C19.6165 12.5968 19.5064 12.6043 19.3961 12.6156C19.3949 12.6157 19.3935 12.6157 19.3923 12.6159C19.2953 12.6257 19.1982 12.6381 19.101 12.6531C19.092 12.6545 19.083 12.6554 19.0739 12.6569C18.9851 12.671 18.8964 12.6876 18.8075 12.706C18.7915 12.7092 18.7756 12.7117 18.7596 12.7152C18.6574 12.7372 18.5555 12.7617 18.4535 12.7896C18.3698 12.8125 18.2874 12.8378 18.2056 12.8641C18.18 12.8724 18.1546 12.8809 18.1292 12.8894C18.0692 12.9097 18.0099 12.9309 17.951 12.953C17.9112 12.9678 17.8717 12.9832 17.8324 12.9989C17.7818 13.0193 17.7314 13.0399 17.6815 13.0616C17.6364 13.0811 17.5918 13.1015 17.5474 13.1221C17.5261 13.132 17.505 13.1421 17.4839 13.1523C17.3202 13.2307 17.1616 13.316 17.008 13.4082C17.005 13.4098 17.0024 13.4117 16.9996 13.4133C16.9184 13.4623 16.8386 13.5132 16.7603 13.5658C16.7591 13.5667 16.7579 13.5675 16.7567 13.5682C16.2119 13.9357 15.7404 14.3901 15.3562 14.9071C15.3548 14.9089 15.3535 14.9108 15.3521 14.9125C15.0133 15.3695 14.7429 15.8743 14.5507 16.4105C14.5458 16.4228 14.5408 16.435 14.537 16.4479L14.5369 16.4482C14.5179 16.5024 14.5002 16.5571 14.4828 16.612C14.476 16.6332 14.4692 16.6546 14.4628 16.676C14.4466 16.7291 14.431 16.7822 14.4164 16.8358C14.4106 16.8569 14.4053 16.8781 14.3997 16.8992C14.3553 17.0693 14.3185 17.2416 14.2898 17.416C14.2846 17.4477 14.2792 17.4795 14.2746 17.5114C14.2676 17.5584 14.2612 17.6053 14.2554 17.6526C14.2508 17.6896 14.2471 17.7267 14.2432 17.7639C14.2387 17.8078 14.2339 17.8518 14.2303 17.896C14.2244 17.9706 14.2199 18.0454 14.2168 18.1205C14.2154 18.1567 14.2152 18.193 14.2145 18.2292C14.2134 18.2786 14.2128 18.3281 14.2129 18.3775C14.2131 18.4145 14.2138 18.4514 14.2146 18.4885C14.216 18.5412 14.2181 18.594 14.2209 18.6469C14.2225 18.6791 14.2239 18.7111 14.2261 18.7434C14.2318 18.826 14.2391 18.9088 14.2484 18.9917C14.2505 19.0101 14.2535 19.0286 14.2558 19.047C14.2642 19.1157 14.2738 19.1842 14.2848 19.253C14.2894 19.2818 14.2946 19.3108 14.2996 19.3396C14.3104 19.4012 14.3223 19.4627 14.3353 19.5242C14.3408 19.551 14.3463 19.5778 14.3522 19.6045C14.3717 19.691 14.3925 19.7775 14.416 19.8638C14.8217 21.3478 15.781 22.585 17.1171 23.3475C17.9992 23.8507 18.9752 24.1074 19.9633 24.1074ZM18.4878 22.8113C18.4229 22.7896 18.3585 22.7659 18.2944 22.7413C18.2737 22.7332 18.2531 22.7248 18.2324 22.7166C18.1872 22.6985 18.1423 22.6796 18.0975 22.6601C18.0759 22.6507 18.0542 22.6414 18.0327 22.6315C17.9783 22.6068 17.9242 22.581 17.8706 22.5542C17.8617 22.5496 17.8524 22.5456 17.8435 22.541L18.2128 22.44C18.3016 22.5656 18.3929 22.6896 18.4879 22.8114C18.4878 22.8113 18.4878 22.8113 18.4878 22.8113ZM17.8914 19.4609L19.6028 18.9932L20.1048 20.8296L18.6732 21.2209C18.3481 20.6686 18.0868 20.0817 17.8914 19.4609ZM20.6958 22.9937C20.6034 23.0083 20.511 23.0197 20.4184 23.0288C20.4095 23.0296 20.4006 23.0304 20.3917 23.0313C20.2987 23.0398 20.2056 23.046 20.1127 23.049C19.8176 22.7609 19.5476 22.4582 19.301 22.1425L20.3828 21.8468L20.6964 22.9937C20.6962 22.9937 20.696 22.9937 20.6958 22.9937ZM22.0148 22.5839H22.0146C21.9161 22.631 21.8159 22.6751 21.7137 22.7156L21.4002 21.5689L22.2805 21.3282C22.2217 21.7331 22.1352 22.1514 22.0148 22.5839ZM22.3742 20.2092L21.1223 20.5514L20.6203 18.715L22.1988 18.2835C22.3222 18.8754 22.3889 19.5185 22.3742 20.2092ZM23.294 21.6784C23.3303 21.4575 23.3582 21.2409 23.3798 21.0278L23.9365 20.8757C23.7496 21.1683 23.5349 21.4375 23.294 21.6784ZM24.6207 17.6215C24.6337 17.7039 24.6444 17.7864 24.6529 17.869C24.6535 17.8742 24.6539 17.8793 24.6545 17.8845C24.6623 17.9628 24.6682 18.0411 24.6721 18.1194C24.6724 18.1257 24.6728 18.1321 24.673 18.1384C24.6767 18.2169 24.6783 18.2953 24.6779 18.3737C24.6778 18.3784 24.6779 18.3831 24.6778 18.3878C24.6772 18.4701 24.6746 18.5522 24.6696 18.6341V18.6343C24.6492 18.9704 24.5924 19.3033 24.4998 19.6283L23.4313 19.9203C23.4246 19.2314 23.3462 18.5913 23.2205 18.0043L24.6207 17.6215ZM23.1913 14.9167C23.314 15.0315 23.4307 15.1531 23.5411 15.2812C23.5421 15.2823 23.5429 15.2833 23.5439 15.2844C23.709 15.4766 23.8596 15.6832 23.9932 15.9031C23.9934 15.9033 23.9936 15.9036 23.9938 15.9039C24.1278 16.1244 24.2447 16.3582 24.3425 16.6041V16.6042L22.9433 16.9867C22.7493 16.4035 22.5165 15.8892 22.28 15.4503C22.2346 15.366 22.1885 15.2842 22.1421 15.2036L23.1913 14.9167ZM21.1677 13.7967C21.2436 13.8167 21.3189 13.8388 21.3935 13.8626C21.3957 13.8634 21.3981 13.8641 21.4004 13.8648C21.627 13.9375 21.8474 14.0269 22.0598 14.1323L22.0601 14.1325L21.5388 14.275C21.4122 14.1014 21.2876 13.9421 21.1677 13.7967ZM21.9191 17.2666L20.3421 17.6976L19.8328 15.8346L21.0806 15.4935C21.3889 15.995 21.6867 16.5878 21.9191 17.2666ZM19.2493 13.6985C19.3613 13.681 19.4731 13.6673 19.5846 13.6579C19.5863 13.6578 19.5878 13.6575 19.5894 13.6575C19.765 13.8179 20.0803 14.1275 20.4374 14.576L19.5549 14.8172L19.249 13.6985L19.2493 13.6985ZM17.7034 14.2246C17.7034 14.2246 17.7036 14.2245 17.7038 14.2245C17.7846 14.18 17.8673 14.1378 17.9513 14.0978C17.9581 14.0946 17.9649 14.0914 17.9717 14.0882C18.0564 14.0483 18.1427 14.0105 18.2306 13.9755C18.2308 13.9755 18.231 13.9753 18.2312 13.9753L18.5374 15.0953L17.5138 15.3751C17.5696 14.85 17.6512 14.4478 17.7034 14.2246ZM18.8155 16.1127L19.3247 17.9757L17.6335 18.4379C17.5574 18.0407 17.504 17.6322 17.476 17.2113C17.4592 16.9596 17.4527 16.717 17.4535 16.4851L18.8155 16.1127ZM16.4698 15.2081C16.4536 15.3542 16.4392 15.509 16.4278 15.672L16.0321 15.7802C16.163 15.5789 16.3094 15.3878 16.4698 15.2081ZM15.3242 19.0689C15.3111 18.9848 15.3005 18.9007 15.292 18.8167C15.291 18.8076 15.2904 18.7986 15.2896 18.7896C15.2824 18.7143 15.2771 18.6392 15.2735 18.5642C15.2729 18.551 15.2724 18.5379 15.272 18.5248C15.2692 18.4535 15.2681 18.3826 15.2686 18.3117C15.2687 18.2969 15.2689 18.2821 15.2691 18.2674C15.2703 18.1974 15.2731 18.1276 15.2774 18.0581C15.2783 18.0438 15.279 18.0295 15.2799 18.0151C15.285 17.943 15.292 17.8712 15.3005 17.7996C15.3017 17.7889 15.3026 17.7782 15.304 17.7676C15.3353 17.517 15.3864 17.2707 15.4567 17.0307L16.4013 16.7725C16.4047 16.9246 16.4109 17.0803 16.4209 17.2396C16.4526 17.7441 16.518 18.2367 16.6151 18.716L15.3243 19.0689C15.3243 19.0691 15.3242 19.0689 15.3242 19.0689ZM15.9427 20.7751C15.9403 20.7713 15.938 20.7674 15.9358 20.7635C15.8955 20.6962 15.857 20.6277 15.8201 20.5582C15.8172 20.5526 15.8142 20.547 15.8113 20.5414C15.7748 20.472 15.74 20.4014 15.7069 20.33C15.7048 20.3253 15.7026 20.3208 15.7005 20.3161C15.6659 20.2407 15.633 20.1642 15.6022 20.0866L16.8791 19.7375C17.0726 20.3553 17.3255 20.9452 17.632 21.5053L16.7272 21.7527C16.4224 21.4632 16.1589 21.1348 15.9427 20.7751Z" fill="#149AC5"/>
<path d="M25.837 25.5977L18.4476 27.5466C17.4081 27.8208 16.7855 28.8896 17.0595 29.9291C17.1923 30.4326 17.5133 30.8544 17.9632 31.1165C18.2652 31.2925 18.601 31.3823 18.9414 31.3823C19.1082 31.3823 19.2762 31.3607 19.4419 31.3171L26.8312 29.3682C27.3348 29.2354 27.7566 28.9144 28.0187 28.4644C28.2808 28.0145 28.3522 27.4894 28.2193 26.9858C27.9452 25.9463 26.8765 25.324 25.837 25.5977Z" fill="#149AC5"/>
<path d="M9.21341 22.6944L7.42794 15.7535C7.35529 15.4714 7.06716 15.3016 6.78568 15.3742C6.50372 15.4469 6.33388 15.7342 6.40638 16.0164L8.19193 22.9574C8.25318 23.1953 8.4674 23.3534 8.70224 23.3534C8.74583 23.3534 8.79005 23.348 8.83411 23.3367C9.11615 23.2641 9.28591 22.9766 9.21341 22.6944Z" fill="#149AC5"/>
<path d="M9.67474 26.605C9.95677 26.5324 10.1266 26.245 10.0541 25.9628L9.76505 24.8394C9.69231 24.5573 9.40474 24.3876 9.12286 24.4601C8.84091 24.5327 8.67099 24.8201 8.74356 25.1023L9.03255 26.2257C9.0938 26.4637 9.30802 26.6217 9.54286 26.6217C9.58645 26.6217 9.6306 26.6164 9.67474 26.605Z" fill="#149AC5"/>
<path d="M10.5797 28.0063C10.5071 27.7243 10.2191 27.5547 9.93754 27.627C9.65551 27.6997 9.48574 27.9871 9.55824 28.2693L10.6356 32.4571C10.6968 32.695 10.9111 32.8531 11.1459 32.8531C11.1895 32.8531 11.2336 32.8477 11.2778 32.8364C11.5597 32.7638 11.7296 32.4763 11.6571 32.1942L10.5797 28.0063Z" fill="#149AC5"/>
<path d="M32.2204 20.1795L32.5161 21.3013C32.5786 21.5378 32.792 21.6943 33.0257 21.6943C33.0701 21.6943 33.1154 21.6887 33.1604 21.6768C33.442 21.6025 33.6102 21.314 33.536 21.0324L33.2403 19.9106C33.1661 19.6291 32.8777 19.4609 32.596 19.5351C32.3144 19.6094 32.1462 19.8978 32.2204 20.1795Z" fill="#149AC5"/>
<path d="M31.6825 18.14C31.7449 18.3765 31.9583 18.533 32.1921 18.533C32.2365 18.533 32.2817 18.5274 32.3268 18.5155C32.6084 18.4412 32.7766 18.1527 32.7023 17.8712L31.6 13.6898C31.5257 13.4083 31.2371 13.2405 30.9557 13.3143C30.6739 13.3885 30.5058 13.6771 30.58 13.9586L31.6825 18.14Z" fill="#149AC5"/>
</svg>
