<svg width="26" height="27" viewBox="0 0 26 27" fill="none" xmlns="http://www.w3.org/2000/svg">
<path d="M25.5 14.25C25.5 21.1537 19.9037 26.75 13 26.75C6.0965 26.75 0.5 21.1537 0.5 14.25C0.5 7.3465 6.0965 1.75 13 1.75C19.9037 1.75 25.5 7.3465 25.5 14.25Z" fill="#27AE60"/>
<path d="M25.5 13C25.5 19.9037 19.9037 25.5 13 25.5C6.0965 25.5 0.5 19.9037 0.5 13C0.5 6.0965 6.0965 0.5 13 0.5C19.9037 0.5 25.5 6.0965 25.5 13Z" fill="#2ECC71"/>
<path d="M18 9.25L10.5 16.75L7.375 13.625L4.71875 16.25L7.84375 19.375L10.3438 21.875L10.5 21.9999L20.6562 11.875L18 9.25Z" fill="#27AE60"/>
<path d="M18 8L10.5 15.5L7.375 12.375L4.71875 15L7.84375 18.125L10.3438 20.625L10.5 20.7499L20.6562 10.625L18 8Z" fill="#ECF0F1"/>
</svg>
