<svg width="29" height="29" viewBox="0 0 29 29" fill="none" xmlns="http://www.w3.org/2000/svg">
<path d="M3.39192 6.78383C5.26522 6.78383 6.78383 5.26522 6.78383 3.39192C6.78383 1.51861 5.26522 0 3.39192 0C1.51861 0 0 1.51861 0 3.39192C0 5.26522 1.51861 6.78383 3.39192 6.78383Z" fill="white"/>
<path d="M9.9864 9.35374V28.1721H15.8292V18.866C15.8292 16.4104 16.2912 14.0324 19.3359 14.0324C22.3387 14.0324 22.3759 16.8398 22.3759 19.021V28.1736H28.2218V17.8537C28.2218 12.7844 27.1305 8.88867 21.2055 8.88867C18.3608 8.88867 16.454 10.4498 15.6742 11.9271H15.5951V9.35374H9.9864ZM0.464844 9.35374H6.31699V28.1721H0.464844V9.35374Z" fill="white"/>
</svg>
