<svg width="35" height="28" viewBox="0 0 35 28" fill="none" xmlns="http://www.w3.org/2000/svg">
<path d="M35 3.32605C33.7129 3.8728 32.3122 4.26629 30.8695 4.41954C32.3674 3.54324 33.4891 2.15883 34.0242 0.526052C32.6186 1.34944 31.0788 1.92681 29.473 2.23256C28.8019 1.52604 27.9902 0.963199 27.0885 0.579101C26.1868 0.195002 25.2145 -0.00211981 24.2321 1.7191e-05C20.2572 1.7191e-05 17.0604 3.1728 17.0604 7.06628C17.0604 7.61303 17.1278 8.15978 17.2371 8.68581C11.2853 8.3793 5.97705 5.5793 2.44802 1.29232C1.805 2.37387 1.46803 3.60533 1.47218 4.85859C1.47218 7.31066 2.73825 9.47279 4.66891 10.7444C3.53114 10.7003 2.42002 10.3923 1.42591 9.84557V9.93255C1.42591 13.3663 3.89076 16.2118 7.17582 16.8663C6.55901 17.024 5.9245 17.1048 5.28723 17.1065C4.82033 17.1065 4.37868 17.061 3.93282 16.9988C4.84136 19.7988 7.48708 21.8325 10.6375 21.8988C8.1727 23.8 5.08533 24.9183 1.73296 24.9183C1.13147 24.9183 0.576253 24.8976 0 24.8314C3.17991 26.8402 6.95289 28 11.0161 28C24.2068 28 31.4247 17.2391 31.4247 7.89883C31.4247 7.59232 31.4247 7.28581 31.4037 6.9793C32.8001 5.97279 34.0242 4.72605 35 3.32605Z" fill="white"/>
</svg>
