<svg width="34" height="30" viewBox="0 0 34 30" fill="none" xmlns="http://www.w3.org/2000/svg">
<path d="M30.334 6.66667H23.6673V3.33333L20.334 0H13.6673L10.334 3.33333V6.66667H3.66732C1.83398 6.66667 0.333984 8.16667 0.333984 10V18.3333C0.333984 19.5833 1.00065 20.6333 2.00065 21.2167V26.6667C2.00065 28.5167 3.48398 30 5.33398 30H28.6673C30.5173 30 32.0007 28.5167 32.0007 26.6667V21.2C32.984 20.6167 33.6673 19.55 33.6673 18.3333V10C33.6673 8.16667 32.1673 6.66667 30.334 6.66667ZM13.6673 3.33333H20.334V6.66667H13.6673V3.33333ZM3.66732 10H30.334V18.3333H22.0007V13.3333H12.0007V18.3333H3.66732V10ZM18.6673 20H15.334V16.6667H18.6673V20ZM28.6673 26.6667H5.33398V21.6667H12.0007V23.3333H22.0007V21.6667H28.6673V26.6667Z" fill="black"/>
</svg>
